<?xml version="1.0" encoding="UTF-8"?>
<!DOCTYPE svg PUBLIC "-//W3C//DTD SVG 1.1 Tiny//EN" "http://www.w3.org/Graphics/SVG/1.1/DTD/svg11-tiny.dtd">
<svg xmlns="http://www.w3.org/2000/svg" baseProfile="tiny" height="58" version="1.0" viewBox="0 0 84 58" width="84">
<defs/>
<rect height="49.411762" style="fill:#0000ff" width="59.448528" x="11.889707" y="4.1102939"/>
<path d="M 32.247932,12.929947 C 31.790888,12.812782 31.319209,12.716102 30.832893,12.639908 C 30.346554,12.563759 29.886593,12.525673 29.45301,12.52565 C 28.984251,12.525673 28.568235,12.581337 28.204963,12.692642 C 27.841674,12.803993 27.534057,12.988563 27.282112,13.246353 C 27.030151,13.504187 26.839721,13.838171 26.710823,14.248306 C 26.581909,14.658483 26.517456,15.156529 26.517463,15.742447 L 26.517463,17.974869 L 31.245979,17.974869 L 31.245979,21.402603 L 26.517463,21.402603 L 26.517463,35.008072 L 22.351447,35.008072 L 22.351447,21.402603 L 19.468635,21.402603 L 19.468635,17.974869 L 22.351447,17.974869 L 22.351447,15.953385 C 22.351444,14.758092 22.518436,13.729773 22.852423,12.868424 C 23.186404,12.007119 23.652224,11.298135 24.249884,10.741471 C 24.847535,10.184855 25.550659,9.7746992 26.35926,9.5110022 C 27.167846,9.2473562 28.046752,9.1155207 28.995979,9.1154947 C 29.581906,9.1155207 30.164913,9.1653247 30.745002,9.2649082 C 31.325069,9.3645432 31.826045,9.4846602 32.247932,9.6252602 L 32.247932,12.929947 z M 40.931526,30.068619 C 40.931516,29.705343 40.828977,29.406515 40.623909,29.172135 C 40.418821,28.937766 40.146361,28.741477 39.806526,28.583267 C 39.466674,28.425071 39.077026,28.287376 38.637581,28.170181 C 38.19812,28.053001 37.73816,27.935814 37.257698,27.818619 C 36.648317,27.654564 36.06238,27.464134 35.499885,27.24733 C 34.937381,27.030541 34.442265,26.746362 34.014534,26.394791 C 33.586797,26.043237 33.246953,25.600855 32.995002,25.067642 C 32.743048,24.53445 32.617071,23.88113 32.617073,23.107681 C 32.617071,22.158476 32.786993,21.335234 33.126838,20.637955 C 33.46668,19.940704 33.92664,19.363556 34.506721,18.90651 C 35.086795,18.449495 35.760623,18.109651 36.528206,17.886978 C 37.295778,17.664339 38.1073,17.553011 38.962776,17.552994 C 40.005736,17.553011 40.98425,17.637972 41.898323,17.807877 C 42.812374,17.977816 43.638545,18.197542 44.376838,18.467056 L 44.376838,21.859635 C 43.990107,21.730742 43.582881,21.610625 43.155159,21.499283 C 42.727413,21.387968 42.293819,21.291289 41.854377,21.209244 C 41.414914,21.127227 40.978391,21.059844 40.544807,21.007096 C 40.111204,20.954375 39.701049,20.928008 39.314338,20.927994 C 38.822143,20.928008 38.406128,20.974883 38.066292,21.068619 C 37.726441,21.162383 37.451051,21.288359 37.24012,21.446549 C 37.029176,21.604765 36.876833,21.786406 36.783088,21.991471 C 36.689333,22.196561 36.642458,22.410428 36.642463,22.633072 C 36.642458,23.019803 36.744997,23.336209 36.950081,23.582291 C 37.155153,23.828396 37.439332,24.027614 37.80262,24.179947 C 38.165894,24.332301 38.546753,24.458278 38.945198,24.557877 C 39.343627,24.657496 39.730345,24.754176 40.105354,24.847916 C 40.691282,24.988551 41.277219,25.158473 41.863167,25.357681 C 42.449093,25.55691 42.976436,25.83523 43.445198,26.192642 C 43.913935,26.550073 44.297724,27.012963 44.596565,27.581314 C 44.895379,28.14968 45.044793,28.873313 45.044807,29.752213 C 45.044793,30.713154 44.863153,31.551044 44.499885,32.265885 C 44.136591,32.98073 43.629756,33.575456 42.979377,34.050064 C 42.328976,34.524674 41.54968,34.876236 40.641487,35.104752 C 39.733275,35.333267 38.734253,35.447525 37.644417,35.447525 C 36.566286,35.447525 35.59656,35.362564 34.735237,35.192642 C 33.873906,35.02272 33.161993,34.808854 32.599495,34.551041 L 32.599495,31.193619 C 33.513555,31.533466 34.357304,31.764911 35.130745,31.887955 C 35.904177,32.011005 36.62488,32.072528 37.292854,32.072525 C 37.808472,32.072528 38.288941,32.034442 38.73426,31.958267 C 39.179565,31.882099 39.563353,31.761982 39.885627,31.597916 C 40.207884,31.433857 40.462767,31.225849 40.650276,30.973892 C 40.837766,30.721944 40.931516,30.420186 40.931526,30.068619 L 40.931526,30.068619 z M 52.99012,16.498306 C 52.990113,17.37723 52.975465,18.100862 52.946174,18.669205 C 52.916871,19.23758 52.867066,19.750275 52.79676,20.207291 L 52.867073,20.207291 C 53.11316,19.879181 53.414917,19.551056 53.772346,19.222916 C 54.12976,18.894807 54.522338,18.610628 54.950081,18.370377 C 55.377806,18.130159 55.864134,17.93387 56.409065,17.78151 C 56.953976,17.629183 57.554562,17.553011 58.210823,17.552994 C 58.77331,17.553011 59.321161,17.608675 59.854377,17.719986 C 60.387567,17.831331 60.885613,18.004183 61.348518,18.238541 C 61.811393,18.472932 62.233268,18.77762 62.614143,19.152603 C 62.994986,19.527619 63.314321,19.972931 63.572151,20.488541 C 63.79479,20.933867 63.958852,21.437773 64.064338,22.00026 C 64.169789,22.562772 64.222524,23.248318 64.222542,24.0569 L 64.222542,35.008072 L 60.056526,35.008072 L 60.056526,24.6194 C 60.056512,24.092067 60.033075,23.661404 59.986213,23.327408 C 59.939325,22.993436 59.857294,22.703397 59.74012,22.457291 C 59.494013,21.941679 59.142451,21.578398 58.685432,21.367447 C 58.228389,21.156523 57.706905,21.051055 57.120979,21.051041 C 56.312375,21.062774 55.565306,21.256133 54.879768,21.631119 C 54.194213,22.006132 53.564331,22.556913 52.99012,23.283463 L 52.99012,35.008072 L 48.824104,35.008072 L 48.824104,9.5549472 L 52.99012,9.5549472 L 52.99012,16.498306 z" style="font-size:36px;font-style:normal;font-variant:normal;font-weight:bold;font-stretch:normal;text-align:start;line-height:100%;writing-mode:lr-tb;text-anchor:start;fill:#ffffff;fill-opacity:1;stroke:none;stroke-width:1px;stroke-linecap:butt;stroke-linejoin:miter;stroke-opacity:1;font-family:Corbel;-inkscape-font-specification:Corbel Bold"/>
<text style="font-size:16px;font-style:normal;font-variant:normal;font-weight:normal;font-stretch:normal;text-align:start;line-height:125%;writing-mode:lr-tb;text-anchor:start;fill:#ffff00;fill-opacity:1;stroke:none;stroke-width:1px;stroke-linecap:butt;stroke-linejoin:miter;stroke-opacity:1;font-family:Corbel;-inkscape-font-specification:Corbel" x="29.183825" y="47.345589"/>
</svg>
