<?xml version="1.0" encoding="UTF-8" standalone="no"?>
<!-- Created with Inkscape (http://www.inkscape.org/) -->
<svg
   xmlns:dc="http://purl.org/dc/elements/1.1/"
   xmlns:cc="http://creativecommons.org/ns#"
   xmlns:rdf="http://www.w3.org/1999/02/22-rdf-syntax-ns#"
   xmlns:svg="http://www.w3.org/2000/svg"
   xmlns="http://www.w3.org/2000/svg"
   xmlns:sodipodi="http://sodipodi.sourceforge.net/DTD/sodipodi-0.dtd"
   xmlns:inkscape="http://www.inkscape.org/namespaces/inkscape"
   version="1.0"
   width="84"
   height="58"
   viewBox="0 0 84 58"
   id="svg6562"
   sodipodi:version="0.32"
   inkscape:version="0.46"
   sodipodi:docname="fshell_usb.svg"
   inkscape:output_extension="org.inkscape.output.svg.inkscape">
  <metadata
     id="metadata2449">
    <rdf:RDF>
      <cc:Work
         rdf:about="">
        <dc:format>image/svg+xml</dc:format>
        <dc:type
           rdf:resource="http://purl.org/dc/dcmitype/StillImage" />
      </cc:Work>
    </rdf:RDF>
  </metadata>
  <sodipodi:namedview
     inkscape:window-height="675"
     inkscape:window-width="640"
     inkscape:pageshadow="2"
     inkscape:pageopacity="0.0"
     guidetolerance="10.0"
     gridtolerance="10.0"
     objecttolerance="10.0"
     borderopacity="1.0"
     bordercolor="#666666"
     pagecolor="#ffffff"
     id="base"
     showgrid="false"
     inkscape:zoom="6.4761905"
     inkscape:cx="42"
     inkscape:cy="29"
     inkscape:window-x="176"
     inkscape:window-y="98"
     inkscape:current-layer="svg6562" />
  <defs
     id="defs6649">
    <inkscape:perspective
       sodipodi:type="inkscape:persp3d"
       inkscape:vp_x="0 : 29 : 1"
       inkscape:vp_y="0 : 1000 : 0"
       inkscape:vp_z="84 : 29 : 1"
       inkscape:persp3d-origin="42 : 19.333333 : 1"
       id="perspective2451" />
  </defs>
  <rect
     width="59.448528"
     height="49.411762"
     x="11.889707"
     y="4.1102939"
     id="rect6661"
     style="fill:#0000ff" />
  <path
     d="M 32.247932,12.929947 C 31.790888,12.812782 31.319209,12.716102 30.832893,12.639908 C 30.346554,12.563759 29.886593,12.525673 29.45301,12.52565 C 28.984251,12.525673 28.568235,12.581337 28.204963,12.692642 C 27.841674,12.803993 27.534057,12.988563 27.282112,13.246353 C 27.030151,13.504187 26.839721,13.838171 26.710823,14.248306 C 26.581909,14.658483 26.517456,15.156529 26.517463,15.742447 L 26.517463,17.974869 L 31.245979,17.974869 L 31.245979,21.402603 L 26.517463,21.402603 L 26.517463,35.008072 L 22.351447,35.008072 L 22.351447,21.402603 L 19.468635,21.402603 L 19.468635,17.974869 L 22.351447,17.974869 L 22.351447,15.953385 C 22.351444,14.758092 22.518436,13.729773 22.852423,12.868424 C 23.186404,12.007119 23.652224,11.298135 24.249884,10.741471 C 24.847535,10.184855 25.550659,9.7746992 26.35926,9.5110022 C 27.167846,9.2473562 28.046752,9.1155207 28.995979,9.1154947 C 29.581906,9.1155207 30.164913,9.1653247 30.745002,9.2649082 C 31.325069,9.3645432 31.826045,9.4846602 32.247932,9.6252602 L 32.247932,12.929947 z M 40.931526,30.068619 C 40.931516,29.705343 40.828977,29.406515 40.623909,29.172135 C 40.418821,28.937766 40.146361,28.741477 39.806526,28.583267 C 39.466674,28.425071 39.077026,28.287376 38.637581,28.170181 C 38.19812,28.053001 37.73816,27.935814 37.257698,27.818619 C 36.648317,27.654564 36.06238,27.464134 35.499885,27.24733 C 34.937381,27.030541 34.442265,26.746362 34.014534,26.394791 C 33.586797,26.043237 33.246953,25.600855 32.995002,25.067642 C 32.743048,24.53445 32.617071,23.88113 32.617073,23.107681 C 32.617071,22.158476 32.786993,21.335234 33.126838,20.637955 C 33.46668,19.940704 33.92664,19.363556 34.506721,18.90651 C 35.086795,18.449495 35.760623,18.109651 36.528206,17.886978 C 37.295778,17.664339 38.1073,17.553011 38.962776,17.552994 C 40.005736,17.553011 40.98425,17.637972 41.898323,17.807877 C 42.812374,17.977816 43.638545,18.197542 44.376838,18.467056 L 44.376838,21.859635 C 43.990107,21.730742 43.582881,21.610625 43.155159,21.499283 C 42.727413,21.387968 42.293819,21.291289 41.854377,21.209244 C 41.414914,21.127227 40.978391,21.059844 40.544807,21.007096 C 40.111204,20.954375 39.701049,20.928008 39.314338,20.927994 C 38.822143,20.928008 38.406128,20.974883 38.066292,21.068619 C 37.726441,21.162383 37.451051,21.288359 37.24012,21.446549 C 37.029176,21.604765 36.876833,21.786406 36.783088,21.991471 C 36.689333,22.196561 36.642458,22.410428 36.642463,22.633072 C 36.642458,23.019803 36.744997,23.336209 36.950081,23.582291 C 37.155153,23.828396 37.439332,24.027614 37.80262,24.179947 C 38.165894,24.332301 38.546753,24.458278 38.945198,24.557877 C 39.343627,24.657496 39.730345,24.754176 40.105354,24.847916 C 40.691282,24.988551 41.277219,25.158473 41.863167,25.357681 C 42.449093,25.55691 42.976436,25.83523 43.445198,26.192642 C 43.913935,26.550073 44.297724,27.012963 44.596565,27.581314 C 44.895379,28.14968 45.044793,28.873313 45.044807,29.752213 C 45.044793,30.713154 44.863153,31.551044 44.499885,32.265885 C 44.136591,32.98073 43.629756,33.575456 42.979377,34.050064 C 42.328976,34.524674 41.54968,34.876236 40.641487,35.104752 C 39.733275,35.333267 38.734253,35.447525 37.644417,35.447525 C 36.566286,35.447525 35.59656,35.362564 34.735237,35.192642 C 33.873906,35.02272 33.161993,34.808854 32.599495,34.551041 L 32.599495,31.193619 C 33.513555,31.533466 34.357304,31.764911 35.130745,31.887955 C 35.904177,32.011005 36.62488,32.072528 37.292854,32.072525 C 37.808472,32.072528 38.288941,32.034442 38.73426,31.958267 C 39.179565,31.882099 39.563353,31.761982 39.885627,31.597916 C 40.207884,31.433857 40.462767,31.225849 40.650276,30.973892 C 40.837766,30.721944 40.931516,30.420186 40.931526,30.068619 L 40.931526,30.068619 z M 52.99012,16.498306 C 52.990113,17.37723 52.975465,18.100862 52.946174,18.669205 C 52.916871,19.23758 52.867066,19.750275 52.79676,20.207291 L 52.867073,20.207291 C 53.11316,19.879181 53.414917,19.551056 53.772346,19.222916 C 54.12976,18.894807 54.522338,18.610628 54.950081,18.370377 C 55.377806,18.130159 55.864134,17.93387 56.409065,17.78151 C 56.953976,17.629183 57.554562,17.553011 58.210823,17.552994 C 58.77331,17.553011 59.321161,17.608675 59.854377,17.719986 C 60.387567,17.831331 60.885613,18.004183 61.348518,18.238541 C 61.811393,18.472932 62.233268,18.77762 62.614143,19.152603 C 62.994986,19.527619 63.314321,19.972931 63.572151,20.488541 C 63.79479,20.933867 63.958852,21.437773 64.064338,22.00026 C 64.169789,22.562772 64.222524,23.248318 64.222542,24.0569 L 64.222542,35.008072 L 60.056526,35.008072 L 60.056526,24.6194 C 60.056512,24.092067 60.033075,23.661404 59.986213,23.327408 C 59.939325,22.993436 59.857294,22.703397 59.74012,22.457291 C 59.494013,21.941679 59.142451,21.578398 58.685432,21.367447 C 58.228389,21.156523 57.706905,21.051055 57.120979,21.051041 C 56.312375,21.062774 55.565306,21.256133 54.879768,21.631119 C 54.194213,22.006132 53.564331,22.556913 52.99012,23.283463 L 52.99012,35.008072 L 48.824104,35.008072 L 48.824104,9.5549472 L 52.99012,9.5549472 L 52.99012,16.498306 z"
     id="text2481"
     style="font-size:36px;font-style:normal;font-variant:normal;font-weight:bold;font-stretch:normal;text-align:start;line-height:100%;writing-mode:lr-tb;text-anchor:start;fill:#ffffff;fill-opacity:1;stroke:none;stroke-width:1px;stroke-linecap:butt;stroke-linejoin:miter;stroke-opacity:1;font-family:Corbel;-inkscape-font-specification:Corbel Bold" />
  <path
     style="font-size:16px;font-style:normal;font-variant:normal;font-weight:normal;font-stretch:normal;text-align:start;line-height:125%;writing-mode:lr-tb;text-anchor:start;fill:#ffff00;fill-opacity:1;stroke:none;stroke-width:1px;stroke-linecap:butt;stroke-linejoin:miter;stroke-opacity:1;font-family:Corbel;-inkscape-font-specification:Corbel"
     d="M 41.808361,47.643379 C 42.188564,47.64338 42.525803,47.599109 42.82008,47.510567 C 43.114344,47.422026 43.370854,47.297026 43.589611,47.135567 C 43.808354,46.97411 43.990645,46.7801 44.136486,46.553535 C 44.282312,46.326975 44.394291,46.075673 44.472424,45.799629 C 44.524499,45.627757 44.560957,45.436351 44.581799,45.22541 C 44.602624,45.014477 44.61304,44.81005 44.613049,44.612129 L 44.613049,38.127754 L 45.886486,38.127754 L 45.886486,44.580879 C 45.886477,44.825675 45.873456,45.080883 45.847424,45.346504 C 45.821373,45.612132 45.779706,45.859528 45.722424,46.088692 C 45.623456,46.47411 45.475019,46.830881 45.277111,47.159004 C 45.079186,47.48713 44.821374,47.770984 44.503674,48.010567 C 44.185957,48.25015 43.804447,48.43765 43.359142,48.573067 C 42.913823,48.708483 42.391688,48.776192 41.792736,48.776192 C 41.219815,48.776192 40.717211,48.713692 40.284924,48.588692 C 39.852628,48.463692 39.481535,48.290515 39.171642,48.06916 C 38.861744,47.847807 38.607838,47.584786 38.409924,47.280098 C 38.212005,46.975412 38.058359,46.643381 37.948986,46.284004 C 37.87086,46.02359 37.81487,45.744945 37.781017,45.448067 C 37.747162,45.151195 37.730235,44.862133 37.730236,44.580879 L 37.730236,38.127754 L 39.003674,38.127754 L 39.003674,44.612129 C 39.003671,44.846508 39.020598,45.087393 39.054455,45.334785 C 39.088306,45.582184 39.141692,45.807444 39.214611,46.010567 C 39.3969,46.515777 39.700285,46.914214 40.124767,47.205879 C 40.549242,47.497547 41.11044,47.64338 41.808361,47.643379 L 41.808361,47.643379 z M 49.488049,40.893379 C 49.488046,41.200678 49.550546,41.454584 49.675549,41.655098 C 49.800546,41.855626 49.968515,42.02099 50.179455,42.151192 C 50.390389,42.281406 50.635181,42.388177 50.91383,42.471504 C 51.192472,42.554844 51.482836,42.632968 51.784924,42.705879 C 52.191169,42.804843 52.590908,42.914218 52.984142,43.034004 C 53.377365,43.153801 53.727625,43.319166 54.034924,43.530098 C 54.342208,43.74104 54.590906,44.01578 54.781017,44.354317 C 54.971114,44.692862 55.066166,45.127758 55.066174,45.659004 C 55.066166,46.200673 54.965905,46.668121 54.765392,47.061348 C 54.564864,47.454578 54.286219,47.777495 53.929455,48.030098 C 53.572678,48.282702 53.146897,48.470202 52.652111,48.592598 C 52.157314,48.714994 51.615648,48.776192 51.027111,48.776192 C 50.756274,48.776192 50.478931,48.759264 50.19508,48.72541 C 49.911223,48.691556 49.64039,48.645983 49.38258,48.588692 C 49.124765,48.5314 48.891693,48.466296 48.683361,48.393379 C 48.475026,48.320463 48.310964,48.247546 48.191174,48.174629 L 48.191174,47.010567 C 48.378672,47.104318 48.58961,47.190256 48.823986,47.268379 C 49.058359,47.346505 49.300546,47.412912 49.550549,47.467598 C 49.800546,47.522287 50.05315,47.565255 50.308361,47.596504 C 50.563566,47.627755 50.803149,47.64338 51.027111,47.643379 C 51.39169,47.64338 51.739346,47.61213 52.07008,47.549629 C 52.400804,47.48713 52.691168,47.382964 52.941174,47.237129 C 53.191168,47.091297 53.389084,46.892079 53.534924,46.639473 C 53.68075,46.386871 53.753667,46.070465 53.753674,45.690254 C 53.753667,45.377757 53.689865,45.119945 53.562267,44.916817 C 53.434657,44.713696 53.264084,44.545727 53.050549,44.41291 C 52.837001,44.280102 52.590908,44.172029 52.312267,44.088692 C 52.033617,44.005363 51.740648,43.927238 51.433361,43.854317 C 51.027107,43.760572 50.629972,43.655103 50.241955,43.53791 C 49.853931,43.420728 49.507577,43.257968 49.202892,43.049629 C 48.898203,42.841302 48.653412,42.573073 48.468517,42.244942 C 48.28362,41.916823 48.191173,41.497553 48.191174,40.987129 C 48.191173,40.455887 48.284922,39.998857 48.472424,39.616035 C 48.659922,39.233232 48.91513,38.916826 49.238049,38.666817 C 49.560963,38.416827 49.938567,38.231931 50.370861,38.112129 C 50.803149,37.992348 51.264086,37.932452 51.753674,37.932442 C 52.31096,37.932452 52.830491,37.985838 53.312267,38.092598 C 53.794032,38.199379 54.235437,38.338702 54.636486,38.510567 L 54.636486,39.690254 C 54.204187,39.507972 53.757573,39.359534 53.296642,39.244942 C 52.835699,39.130368 52.34221,39.070472 51.816174,39.065254 C 51.420336,39.065264 51.076586,39.108232 50.784924,39.19416 C 50.493254,39.280107 50.251066,39.402503 50.058361,39.561348 C 49.86565,39.720211 49.722421,39.912919 49.628674,40.139473 C 49.534921,40.366044 49.488046,40.617346 49.488049,40.893379 L 49.488049,40.893379 z M 62.519299,43.174629 C 62.842208,43.22151 63.132573,43.307447 63.390392,43.432442 C 63.648197,43.557447 63.869551,43.717603 64.054455,43.91291 C 64.239342,44.108227 64.381269,44.339998 64.480236,44.608223 C 64.579186,44.876456 64.628665,45.182445 64.628674,45.526192 C 64.628665,45.770986 64.592207,46.027496 64.519299,46.295723 C 64.446373,46.563954 64.32528,46.824371 64.156017,47.076973 C 63.986739,47.329578 63.765385,47.562651 63.491955,47.776192 C 63.21851,47.989734 62.878667,48.164213 62.472424,48.299629 C 62.159917,48.403796 61.813564,48.476713 61.433361,48.518379 C 61.053148,48.560046 60.597419,48.580879 60.066174,48.580879 L 57.363049,48.580879 L 57.363049,38.127754 L 59.972424,38.127754 C 60.212003,38.127765 60.42945,38.131671 60.624767,38.139473 C 60.820075,38.147296 60.999762,38.159015 61.16383,38.174629 C 61.327887,38.190265 61.480231,38.209796 61.620861,38.233223 C 61.76148,38.256671 61.894293,38.284015 62.019299,38.315254 C 62.347417,38.403806 62.645594,38.5249 62.91383,38.678535 C 63.182052,38.832191 63.409916,39.015785 63.597424,39.229317 C 63.784916,39.442868 63.929447,39.685055 64.031017,39.955879 C 64.132572,40.226721 64.183353,40.520991 64.183361,40.838692 C 64.183353,41.093908 64.153405,41.338699 64.093517,41.573067 C 64.033613,41.807448 63.937259,42.023594 63.804455,42.221504 C 63.671635,42.419427 63.49976,42.59651 63.28883,42.752754 C 63.077885,42.90901 62.821375,43.039218 62.519299,43.143379 L 62.519299,43.174629 z M 60.573986,42.651192 C 60.823981,42.651198 61.040127,42.639479 61.222424,42.616035 C 61.40471,42.592604 61.568772,42.557448 61.714611,42.510567 C 62.10523,42.380365 62.390386,42.17724 62.57008,41.901192 C 62.749761,41.625157 62.839604,41.299636 62.839611,40.924629 C 62.839604,40.539221 62.745854,40.224117 62.558361,39.979317 C 62.370855,39.734534 62.076584,39.552242 61.675549,39.432442 C 61.477626,39.375159 61.24846,39.334795 60.988049,39.311348 C 60.727627,39.28792 60.420336,39.276201 60.066174,39.276192 L 58.636486,39.276192 L 58.636486,42.651192 L 60.573986,42.651192 z M 58.636486,43.799629 L 58.636486,47.432442 L 60.175549,47.432442 C 60.540127,47.432443 60.878669,47.415516 61.191174,47.38166 C 61.503668,47.347808 61.769293,47.294422 61.988049,47.221504 C 62.227626,47.143381 62.43075,47.04312 62.597424,46.920723 C 62.764083,46.798329 62.898198,46.662912 62.999767,46.514473 C 63.101323,46.366038 63.174239,46.208486 63.218517,46.041817 C 63.262781,45.875153 63.284916,45.705882 63.284924,45.534004 C 63.284916,45.336091 63.261479,45.149893 63.214611,44.97541 C 63.167729,44.800935 63.090906,44.644685 62.984142,44.50666 C 62.877365,44.368644 62.73674,44.24755 62.562267,44.143379 C 62.387782,44.039217 62.170334,43.958488 61.909924,43.901192 C 61.753668,43.864738 61.575283,43.838696 61.374767,43.823067 C 61.174241,43.807446 60.925544,43.799634 60.628674,43.799629 L 58.636486,43.799629 z"
     id="text2453" />
</svg>
