<?xml version="1.0" encoding="UTF-8"?>
<!DOCTYPE svg PUBLIC "-//W3C//DTD SVG 1.1 Tiny//EN" "http://www.w3.org/Graphics/SVG/1.1/DTD/svg11-tiny.dtd">
<svg xmlns="http://www.w3.org/2000/svg" baseProfile="tiny" height="58" version="1.0" viewBox="0 0 84 58" width="84">
<rect height="49.411762" style="fill:#0000ff" width="59.448528" x="11.889707" y="4.1102939"/>
<path d="M 32.247932,12.929947 C 31.790888,12.812782 31.319209,12.716102 30.832893,12.639908 C 30.346554,12.563759 29.886593,12.525673 29.45301,12.52565 C 28.984251,12.525673 28.568235,12.581337 28.204963,12.692642 C 27.841674,12.803993 27.534057,12.988563 27.282112,13.246353 C 27.030151,13.504187 26.839721,13.838171 26.710823,14.248306 C 26.581909,14.658483 26.517456,15.156529 26.517463,15.742447 L 26.517463,17.974869 L 31.245979,17.974869 L 31.245979,21.402603 L 26.517463,21.402603 L 26.517463,35.008072 L 22.351447,35.008072 L 22.351447,21.402603 L 19.468635,21.402603 L 19.468635,17.974869 L 22.351447,17.974869 L 22.351447,15.953385 C 22.351444,14.758092 22.518436,13.729773 22.852423,12.868424 C 23.186404,12.007119 23.652224,11.298135 24.249884,10.741471 C 24.847535,10.184855 25.550659,9.7746992 26.35926,9.5110022 C 27.167846,9.2473562 28.046752,9.1155207 28.995979,9.1154947 C 29.581906,9.1155207 30.164913,9.1653247 30.745002,9.2649082 C 31.325069,9.3645432 31.826045,9.4846602 32.247932,9.6252602 L 32.247932,12.929947 z M 40.931526,30.068619 C 40.931516,29.705343 40.828977,29.406515 40.623909,29.172135 C 40.418821,28.937766 40.146361,28.741477 39.806526,28.583267 C 39.466674,28.425071 39.077026,28.287376 38.637581,28.170181 C 38.19812,28.053001 37.73816,27.935814 37.257698,27.818619 C 36.648317,27.654564 36.06238,27.464134 35.499885,27.24733 C 34.937381,27.030541 34.442265,26.746362 34.014534,26.394791 C 33.586797,26.043237 33.246953,25.600855 32.995002,25.067642 C 32.743048,24.53445 32.617071,23.88113 32.617073,23.107681 C 32.617071,22.158476 32.786993,21.335234 33.126838,20.637955 C 33.46668,19.940704 33.92664,19.363556 34.506721,18.90651 C 35.086795,18.449495 35.760623,18.109651 36.528206,17.886978 C 37.295778,17.664339 38.1073,17.553011 38.962776,17.552994 C 40.005736,17.553011 40.98425,17.637972 41.898323,17.807877 C 42.812374,17.977816 43.638545,18.197542 44.376838,18.467056 L 44.376838,21.859635 C 43.990107,21.730742 43.582881,21.610625 43.155159,21.499283 C 42.727413,21.387968 42.293819,21.291289 41.854377,21.209244 C 41.414914,21.127227 40.978391,21.059844 40.544807,21.007096 C 40.111204,20.954375 39.701049,20.928008 39.314338,20.927994 C 38.822143,20.928008 38.406128,20.974883 38.066292,21.068619 C 37.726441,21.162383 37.451051,21.288359 37.24012,21.446549 C 37.029176,21.604765 36.876833,21.786406 36.783088,21.991471 C 36.689333,22.196561 36.642458,22.410428 36.642463,22.633072 C 36.642458,23.019803 36.744997,23.336209 36.950081,23.582291 C 37.155153,23.828396 37.439332,24.027614 37.80262,24.179947 C 38.165894,24.332301 38.546753,24.458278 38.945198,24.557877 C 39.343627,24.657496 39.730345,24.754176 40.105354,24.847916 C 40.691282,24.988551 41.277219,25.158473 41.863167,25.357681 C 42.449093,25.55691 42.976436,25.83523 43.445198,26.192642 C 43.913935,26.550073 44.297724,27.012963 44.596565,27.581314 C 44.895379,28.14968 45.044793,28.873313 45.044807,29.752213 C 45.044793,30.713154 44.863153,31.551044 44.499885,32.265885 C 44.136591,32.98073 43.629756,33.575456 42.979377,34.050064 C 42.328976,34.524674 41.54968,34.876236 40.641487,35.104752 C 39.733275,35.333267 38.734253,35.447525 37.644417,35.447525 C 36.566286,35.447525 35.59656,35.362564 34.735237,35.192642 C 33.873906,35.02272 33.161993,34.808854 32.599495,34.551041 L 32.599495,31.193619 C 33.513555,31.533466 34.357304,31.764911 35.130745,31.887955 C 35.904177,32.011005 36.62488,32.072528 37.292854,32.072525 C 37.808472,32.072528 38.288941,32.034442 38.73426,31.958267 C 39.179565,31.882099 39.563353,31.761982 39.885627,31.597916 C 40.207884,31.433857 40.462767,31.225849 40.650276,30.973892 C 40.837766,30.721944 40.931516,30.420186 40.931526,30.068619 L 40.931526,30.068619 z M 52.99012,16.498306 C 52.990113,17.37723 52.975465,18.100862 52.946174,18.669205 C 52.916871,19.23758 52.867066,19.750275 52.79676,20.207291 L 52.867073,20.207291 C 53.11316,19.879181 53.414917,19.551056 53.772346,19.222916 C 54.12976,18.894807 54.522338,18.610628 54.950081,18.370377 C 55.377806,18.130159 55.864134,17.93387 56.409065,17.78151 C 56.953976,17.629183 57.554562,17.553011 58.210823,17.552994 C 58.77331,17.553011 59.321161,17.608675 59.854377,17.719986 C 60.387567,17.831331 60.885613,18.004183 61.348518,18.238541 C 61.811393,18.472932 62.233268,18.77762 62.614143,19.152603 C 62.994986,19.527619 63.314321,19.972931 63.572151,20.488541 C 63.79479,20.933867 63.958852,21.437773 64.064338,22.00026 C 64.169789,22.562772 64.222524,23.248318 64.222542,24.0569 L 64.222542,35.008072 L 60.056526,35.008072 L 60.056526,24.6194 C 60.056512,24.092067 60.033075,23.661404 59.986213,23.327408 C 59.939325,22.993436 59.857294,22.703397 59.74012,22.457291 C 59.494013,21.941679 59.142451,21.578398 58.685432,21.367447 C 58.228389,21.156523 57.706905,21.051055 57.120979,21.051041 C 56.312375,21.062774 55.565306,21.256133 54.879768,21.631119 C 54.194213,22.006132 53.564331,22.556913 52.99012,23.283463 L 52.99012,35.008072 L 48.824104,35.008072 L 48.824104,9.5549472 L 52.99012,9.5549472 L 52.99012,16.498306 z" style="font-size:36px;font-style:normal;font-variant:normal;font-weight:bold;font-stretch:normal;text-align:start;line-height:100%;writing-mode:lr-tb;text-anchor:start;fill:#ffffff;fill-opacity:1;stroke:none;stroke-width:1px;stroke-linecap:butt;stroke-linejoin:miter;stroke-opacity:1;font-family:Corbel;-inkscape-font-specification:Corbel Bold"/>
<path d="M 35.683824,48.735292 L 35.683824,37.422792 L 36.894761,37.422792 L 36.894761,48.735292 L 35.683824,48.735292 z M 44.676011,45.032167 C 44.676005,44.573838 44.620015,44.166286 44.508043,43.809511 C 44.396057,43.452745 44.239807,43.150662 44.039293,42.903261 C 43.838766,42.655871 43.600485,42.468371 43.324449,42.340761 C 43.048402,42.213163 42.746319,42.149361 42.418199,42.149354 C 42.09007,42.149361 41.787987,42.213163 41.511949,42.340761 C 41.235904,42.468371 40.997623,42.655871 40.797105,42.903261 C 40.596582,43.150662 40.440332,43.452745 40.328355,43.809511 C 40.216374,44.166286 40.160384,44.573838 40.160386,45.032167 C 40.160384,45.485295 40.216374,45.890243 40.328355,46.247011 C 40.440332,46.603784 40.597884,46.904565 40.801011,47.149354 C 41.004134,47.394147 41.243717,47.580345 41.519761,47.707948 C 41.795799,47.835553 42.097882,47.899355 42.426011,47.899354 C 42.754132,47.899355 43.054913,47.835553 43.328355,47.707948 C 43.601787,47.580345 43.838766,47.394147 44.039293,47.149354 C 44.239807,46.904565 44.396057,46.603784 44.508043,46.247011 C 44.620015,45.890243 44.676005,45.485295 44.676011,45.032167 L 44.676011,45.032167 z M 45.941636,45.032167 C 45.941629,45.615503 45.858295,46.146753 45.691636,46.625917 C 45.524962,47.105085 45.289285,47.515241 44.984605,47.856386 C 44.679911,48.197532 44.311422,48.461855 43.879136,48.649354 C 43.446839,48.836854 42.962465,48.930604 42.426011,48.930604 C 41.873924,48.930604 41.380435,48.836854 40.945543,48.649354 C 40.510644,48.461855 40.140853,48.197532 39.836168,47.856386 C 39.531479,47.515241 39.298406,47.105085 39.136949,46.625917 C 38.97549,46.146753 38.894761,45.615503 38.894761,45.032167 C 38.894761,44.44363 38.978094,43.909776 39.144761,43.430604 C 39.311427,42.951444 39.547104,42.539986 39.851793,42.196229 C 40.156478,41.852486 40.526269,41.586862 40.961168,41.399354 C 41.39606,41.211862 41.881737,41.118112 42.418199,41.118104 C 42.965069,41.118112 43.457256,41.211862 43.894761,41.399354 C 44.332255,41.586862 44.702046,41.852486 45.004136,42.196229 C 45.306213,42.539986 45.537983,42.951444 45.699449,43.430604 C 45.860899,43.909776 45.941629,44.44363 45.941636,45.032167 L 45.941636,45.032167 z M 51.043199,41.118104 C 51.402569,41.118112 51.746319,41.155872 52.074449,41.231386 C 52.402568,41.306914 52.683818,41.412383 52.918199,41.547792 L 52.918199,42.555604 C 52.590068,42.430611 52.287985,42.336861 52.011949,42.274354 C 51.735902,42.211861 51.454652,42.180611 51.168199,42.180604 C 50.866111,42.180611 50.566632,42.23009 50.269761,42.329042 C 49.972883,42.428007 49.707258,42.590767 49.472886,42.817323 C 49.238509,43.043891 49.049707,43.34337 48.90648,43.715761 C 48.763249,44.088161 48.691634,44.5504 48.691636,45.102479 C 48.691634,45.503524 48.74502,45.873316 48.851793,46.211854 C 48.958561,46.550398 49.117415,46.843367 49.328355,47.090761 C 49.53929,47.338158 49.803612,47.530866 50.121324,47.668886 C 50.439028,47.806907 50.806216,47.875918 51.222886,47.875917 C 51.524965,47.875918 51.829652,47.843366 52.136949,47.778261 C 52.444235,47.713158 52.743714,47.62071 53.035386,47.500917 L 53.035386,48.508729 C 52.946838,48.560813 52.830953,48.612896 52.68773,48.664979 C 52.544495,48.717063 52.386943,48.762636 52.215074,48.801698 C 52.043193,48.840761 51.860902,48.872011 51.668199,48.895448 C 51.475486,48.918885 51.282778,48.930604 51.090074,48.930604 C 50.59007,48.930604 50.117414,48.855083 49.672105,48.704042 C 49.22679,48.553 48.837468,48.32123 48.504136,48.008729 C 48.170802,47.69623 47.907781,47.300398 47.715074,46.821229 C 47.522365,46.342065 47.426011,45.774357 47.426011,45.118104 C 47.426011,44.628525 47.476792,44.188421 47.578355,43.797792 C 47.679917,43.407172 47.819239,43.063423 47.996324,42.766542 C 48.173406,42.469673 48.380437,42.217069 48.617418,42.008729 C 48.854395,41.800403 49.106999,41.62983 49.37523,41.497011 C 49.643456,41.364206 49.9208,41.267851 50.207261,41.207948 C 50.493716,41.14806 50.772361,41.118112 51.043199,41.118104 L 51.043199,41.118104 z M 59.230699,47.914979 L 59.199449,47.914979 C 59.100485,48.03998 58.975485,48.163678 58.824449,48.286073 C 58.673402,48.408469 58.498923,48.517844 58.301011,48.614198 C 58.10309,48.710552 57.886945,48.787375 57.652574,48.844667 C 57.418195,48.901958 57.168195,48.930604 56.902574,48.930604 C 56.543196,48.930604 56.213769,48.877219 55.914293,48.770448 C 55.614812,48.663677 55.356999,48.507428 55.140855,48.301698 C 54.924708,48.09597 54.756739,47.844668 54.636949,47.547792 C 54.517156,47.250918 54.457261,46.914981 54.457261,46.539979 C 54.457261,46.17019 54.523667,45.839461 54.65648,45.547792 C 54.789292,45.256129 54.975489,45.008733 55.215074,44.805604 C 55.454655,44.602484 55.742416,44.446234 56.078355,44.336854 C 56.41429,44.227484 56.785383,44.172796 57.191636,44.172792 C 57.577049,44.178005 57.93382,44.211859 58.261949,44.274354 C 58.590069,44.336859 58.881735,44.414984 59.136949,44.508729 L 59.168199,44.508729 L 59.168199,43.993104 C 59.168193,43.789984 59.155173,43.610297 59.129136,43.454042 C 59.103089,43.297797 59.058819,43.159777 58.996324,43.039979 C 58.860902,42.789985 58.644756,42.582954 58.347886,42.418886 C 58.051007,42.25483 57.649966,42.172798 57.144761,42.172792 C 56.769758,42.172798 56.416894,42.207955 56.086168,42.278261 C 55.755436,42.34858 55.42601,42.446236 55.097886,42.571229 L 55.097886,41.555604 C 55.222885,41.493112 55.37002,41.434518 55.539293,41.379823 C 55.708561,41.325143 55.886947,41.278268 56.074449,41.239198 C 56.261946,41.200143 56.459863,41.170195 56.668199,41.149354 C 56.876529,41.128529 57.084862,41.118112 57.293199,41.118104 C 58.043195,41.118112 58.656475,41.250924 59.133043,41.516542 C 59.609599,41.782174 59.952047,42.133736 60.160386,42.571229 C 60.238505,42.737902 60.294494,42.921496 60.328355,43.122011 C 60.362203,43.322537 60.37913,43.542589 60.379136,43.782167 L 60.379136,48.735292 L 59.363511,48.735292 L 59.230699,47.914979 z M 59.168199,45.477479 C 58.944235,45.414983 58.678611,45.355087 58.371324,45.297792 C 58.064028,45.240504 57.725487,45.209254 57.355699,45.204042 C 56.840071,45.204045 56.436425,45.31342 56.144761,45.532167 C 55.853093,45.75092 55.707259,46.086857 55.707261,46.539979 C 55.707259,46.769148 55.743718,46.969669 55.816636,47.141542 C 55.889551,47.313418 55.989811,47.455345 56.117418,47.567323 C 56.245019,47.679303 56.396061,47.762637 56.570543,47.817323 C 56.745019,47.872012 56.931216,47.899355 57.129136,47.899354 C 57.389549,47.899355 57.631737,47.861595 57.855699,47.786073 C 58.079653,47.710553 58.278871,47.62071 58.453355,47.516542 C 58.627829,47.412377 58.776267,47.30821 58.898668,47.204042 C 59.021058,47.099877 59.110902,47.019148 59.168199,46.961854 L 59.168199,45.477479 z M 62.808824,48.735292 L 62.808824,37.422792 L 64.019761,37.422792 L 64.019761,48.735292 L 62.808824,48.735292 z" style="font-size:16px;font-style:normal;font-variant:normal;font-weight:normal;font-stretch:normal;text-align:start;line-height:100%;writing-mode:lr-tb;text-anchor:start;fill:#ffff00;fill-opacity:1;stroke:none;stroke-width:1px;stroke-linecap:butt;stroke-linejoin:miter;stroke-opacity:1;font-family:Corbel;-inkscape-font-specification:Corbel"/>
</svg>
