<?xml version="1.0" encoding="UTF-8"?>
<!DOCTYPE svg PUBLIC "-//W3C//DTD SVG 1.1 Tiny//EN" "http://www.w3.org/Graphics/SVG/1.1/DTD/svg11-tiny.dtd">
<svg xmlns="http://www.w3.org/2000/svg" baseProfile="tiny" height="44" version="1.0" width="44">
<defs/>
<g transform="matrix(1.3743906,0,0,1.4637276,-1.4480592e-2,-0.981291)">
<rect height="17.958471" ry="2.5706975" style="fill:#00668c;fill-opacity:1;fill-rule:evenodd;stroke:#000000;stroke-width:1.00480461;stroke-linecap:butt;stroke-linejoin:round;stroke-miterlimit:21.79999924;stroke-dasharray:none;stroke-opacity:1" transform="matrix(0.9857576,-0.1681724,0,1,0,0)" width="28.651619" x="0.96957904" y="8.4601355"/>
<rect height="17.958471" ry="2.5706975" style="fill:#00b8fc;fill-opacity:0.83574877;fill-rule:evenodd;stroke:#000000;stroke-width:1.00480461;stroke-linecap:butt;stroke-linejoin:round;stroke-miterlimit:21.79999924;stroke-dasharray:none;stroke-opacity:1" transform="matrix(0.9857576,-0.1681724,0,1,0,0)" width="28.651619" x="2.9018717" y="10.544497"/>
<path d="M 5.8228178,13.248344 L 5.8228178,13.248344 L 10.963385,15.410032 L 6.0510609,19.151846 L 6.1400143,20.571272 L 12.258239,15.914674 L 12.169286,14.442488 L 5.825408,11.883728 L 5.8228178,13.248344 z" style="fill:#e0ea00;fill-opacity:1;fill-rule:evenodd;stroke:#000000;stroke-width:0.50394464;stroke-linecap:butt;stroke-linejoin:round;stroke-miterlimit:4;stroke-dasharray:none;stroke-opacity:1"/>
<rect height="1.0460696" ry="0" style="fill:#e0ea00;fill-opacity:1;fill-rule:evenodd;stroke:#000000;stroke-width:0.37287086;stroke-linecap:butt;stroke-linejoin:round;marker:none;marker-start:none;marker-mid:none;marker-end:none;stroke-miterlimit:4;stroke-dasharray:none;stroke-dashoffset:0;stroke-opacity:1;visibility:visible;display:inline;overflow:visible;enable-background:accumulate" transform="matrix(0.9857576,-0.1681724,0,1,0,0)" width="7.894608" x="12.788285" y="20.731438"/>
</g>
</svg>
