STARTFONT 2.1
FONT snow18n
SIZE 18 75 75
FONTBOUNDINGBOX 24 22 -1 -5
STARTPROPERTIES 3
Copyright "Helvetica Narrow 18 points"
MaxNormalCharWidth 24
Uid 268436380
ENDPROPERTIES
CHARS 274
STARTCHAR .notdef
ENCODING 1
SWIDTH 1325 0
DWIDTH 24 0
BBX 23 18 0 -4
BITMAP
01ff00
07ffc0
1ffff0
3ffff8
7c007c
fe00fe
fe00fe
fe7cfe
fcfe7e
79c73c
038380
0701c0
0f01e0
0f83e0
0fc7e0
0fffe0
0fffe0
07ffc0
ENDCHAR
STARTCHAR .notdef
ENCODING 2
SWIDTH 732 0
DWIDTH 13 0
BBX 12 18 0 -4
BITMAP
00e0
00e0
00e0
7fe0
fff0
cff0
c830
c830
c830
cff0
cff0
c930
c930
cff0
c930
c930
fff0
7fe0
ENDCHAR
STARTCHAR .notdef
ENCODING 4
SWIDTH 1339 0
DWIDTH 24 0
BBX 23 18 0 -4
BITMAP
3ffff8
7ffffc
c00006
cfffe6
dffff6
dffff6
dffff6
dffff6
dffff6
cfffe6
c00006
c00006
c84106
cf79e6
c738e6
400006
7ffffc
3ffff8
ENDCHAR
STARTCHAR .notdef
ENCODING 5
SWIDTH 1339 0
DWIDTH 24 0
BBX 23 18 0 -4
BITMAP
0fffe0
0fffe0
0c0060
0c0060
0c0060
0c0060
0c0060
7ffffc
f8003e
c80026
c80026
cfffe6
cfffe6
cfffe6
c00006
c00006
fffffe
7ffffc
ENDCHAR
STARTCHAR .notdef
ENCODING 6
SWIDTH 958 0
DWIDTH 17 0
BBX 16 18 0 -4
BITMAP
03c0
07e0
0e70
1c38
381c
700e
e007
de7b
de7b
de7b
de7b
c003
c3c3
c3c3
c3c3
c3c3
ffff
7ffe
ENDCHAR
STARTCHAR .notdef
ENCODING 7
SWIDTH 965 0
DWIDTH 17 0
BBX 16 18 0 -4
BITMAP
3ffc
7ffe
6006
6ff6
6ff6
6ff6
6ff6
6ff6
6ff6
6006
3ffc
1818
7ffe
c003
c003
c003
ffff
7ffe
ENDCHAR
STARTCHAR .notdef
ENCODING 8
SWIDTH 937 0
DWIDTH 17 0
BBX 16 17 0 -4
BITMAP
001c
001c
7ffe
ffff
c003
c003
cff3
cff3
cff3
cff3
c003
c003
c813
c003
c003
ffff
7ffe
ENDCHAR
STARTCHAR space
ENCODING 32
SWIDTH 205 0
DWIDTH 4 0
BBX 0 0 0 0
BITMAP
ENDCHAR
STARTCHAR exclam
ENCODING 33
SWIDTH 163 0
DWIDTH 3 0
BBX 2 14 0 0
BITMAP
c0
c0
c0
c0
c0
c0
c0
c0
c0
c0
c0
00
c0
c0
ENDCHAR
STARTCHAR quotedbl
ENCODING 34
SWIDTH 332 0
DWIDTH 6 0
BBX 5 4 0 9
BITMAP
d8
d8
d8
90
ENDCHAR
STARTCHAR numbersign
ENCODING 35
SWIDTH 536 0
DWIDTH 10 0
BBX 9 13 0 0
BITMAP
1b00
1b00
1b00
7f80
3600
3600
3600
3600
ff00
6c00
6c00
6c00
6c00
ENDCHAR
STARTCHAR dollar
ENCODING 36
SWIDTH 481 0
DWIDTH 9 0
BBX 8 16 0 -2
BITMAP
18
3c
7e
db
db
d8
78
3e
1f
1b
db
db
7e
3c
18
18
ENDCHAR
STARTCHAR percent
ENCODING 37
SWIDTH 672 0
DWIDTH 12 0
BBX 11 13 0 0
BITMAP
6080
f180
9300
9300
f600
6600
0c00
0cc0
19e0
1920
3120
31e0
20c0
ENDCHAR
STARTCHAR ampersand
ENCODING 38
SWIDTH 533 0
DWIDTH 10 0
BBX 9 13 0 0
BITMAP
3c00
6600
6600
6600
3c00
1800
3800
6d00
c700
c300
c300
e700
7d80
ENDCHAR
STARTCHAR quotesingle
ENCODING 39
SWIDTH 154 0
DWIDTH 3 0
BBX 2 4 0 9
BITMAP
c0
c0
c0
80
ENDCHAR
STARTCHAR parenleft
ENCODING 40
SWIDTH 228 0
DWIDTH 4 0
BBX 3 18 0 -4
BITMAP
20
20
60
60
c0
c0
c0
c0
c0
c0
c0
c0
c0
40
60
60
20
20
ENDCHAR
STARTCHAR parenright
ENCODING 41
SWIDTH 228 0
DWIDTH 4 0
BBX 3 18 0 -4
BITMAP
80
80
c0
c0
60
60
60
60
60
60
60
60
60
40
c0
c0
80
80
ENDCHAR
STARTCHAR asterisk
ENCODING 42
SWIDTH 334 0
DWIDTH 6 0
BBX 5 5 0 9
BITMAP
20
20
f8
70
50
ENDCHAR
STARTCHAR plus
ENCODING 43
SWIDTH 459 0
DWIDTH 8 0
BBX 7 9 0 0
BITMAP
10
10
10
10
fe
10
10
10
10
ENDCHAR
STARTCHAR comma
ENCODING 44
SWIDTH 167 0
DWIDTH 3 0
BBX 2 4 0 -2
BITMAP
c0
c0
40
80
ENDCHAR
STARTCHAR hyphen
ENCODING 45
SWIDTH 241 0
DWIDTH 4 0
BBX 3 1 0 4
BITMAP
e0
ENDCHAR
STARTCHAR period
ENCODING 46
SWIDTH 165 0
DWIDTH 3 0
BBX 2 2 0 0
BITMAP
c0
c0
ENDCHAR
STARTCHAR slash
ENCODING 47
SWIDTH 329 0
DWIDTH 6 0
BBX 5 14 0 0
BITMAP
08
08
08
10
10
10
20
20
40
40
40
80
80
80
ENDCHAR
STARTCHAR zero
ENCODING 48
SWIDTH 477 0
DWIDTH 9 0
BBX 8 14 0 0
BITMAP
3c
7e
66
c3
c3
c3
c3
c3
c3
c3
c3
66
7e
3c
ENDCHAR
STARTCHAR one
ENCODING 49
SWIDTH 253 0
DWIDTH 5 0
BBX 4 14 0 0
BITMAP
30
30
f0
f0
30
30
30
30
30
30
30
30
30
30
ENDCHAR
STARTCHAR two
ENCODING 50
SWIDTH 437 0
DWIDTH 8 0
BBX 7 14 0 0
BITMAP
7c
fe
c6
c6
06
0c
1c
38
70
60
c0
c0
fe
fe
ENDCHAR
STARTCHAR three
ENCODING 51
SWIDTH 442 0
DWIDTH 8 0
BBX 7 14 0 0
BITMAP
38
7c
ee
c6
06
0e
3c
3c
0e
06
c6
ee
7c
38
ENDCHAR
STARTCHAR four
ENCODING 52
SWIDTH 448 0
DWIDTH 8 0
BBX 7 14 0 0
BITMAP
0c
1c
1c
3c
3c
6c
6c
cc
cc
fe
fe
0c
0c
0c
ENDCHAR
STARTCHAR five
ENCODING 53
SWIDTH 436 0
DWIDTH 8 0
BBX 7 14 0 0
BITMAP
fc
fc
c0
c0
c0
d8
fc
ce
06
06
c6
ee
7c
38
ENDCHAR
STARTCHAR six
ENCODING 54
SWIDTH 434 0
DWIDTH 8 0
BBX 7 14 0 0
BITMAP
38
7c
ee
c6
c0
d8
fc
ee
c6
c6
c6
ee
7c
38
ENDCHAR
STARTCHAR seven
ENCODING 55
SWIDTH 439 0
DWIDTH 8 0
BBX 7 14 0 0
BITMAP
fe
fe
06
06
0c
0c
18
18
18
30
30
30
60
60
ENDCHAR
STARTCHAR eight
ENCODING 56
SWIDTH 435 0
DWIDTH 8 0
BBX 7 14 0 0
BITMAP
38
7c
ee
c6
c6
6c
38
7c
ee
c6
c6
ee
7c
38
ENDCHAR
STARTCHAR nine
ENCODING 57
SWIDTH 428 0
DWIDTH 8 0
BBX 7 14 0 0
BITMAP
38
7c
ee
c6
c6
c6
ee
7e
36
06
c6
ee
7c
38
ENDCHAR
STARTCHAR colon
ENCODING 58
SWIDTH 165 0
DWIDTH 3 0
BBX 2 10 0 0
BITMAP
c0
c0
00
00
00
00
00
00
c0
c0
ENDCHAR
STARTCHAR semicolon
ENCODING 59
SWIDTH 167 0
DWIDTH 3 0
BBX 2 12 0 -2
BITMAP
c0
c0
00
00
00
00
00
00
c0
c0
40
80
ENDCHAR
STARTCHAR less
ENCODING 60
SWIDTH 468 0
DWIDTH 8 0
BBX 7 8 0 1
BITMAP
02
0e
38
e0
e0
38
0e
02
ENDCHAR
STARTCHAR equal
ENCODING 61
SWIDTH 459 0
DWIDTH 8 0
BBX 7 5 0 2
BITMAP
fe
00
00
00
fe
ENDCHAR
STARTCHAR greater
ENCODING 62
SWIDTH 468 0
DWIDTH 8 0
BBX 7 8 0 1
BITMAP
80
e0
38
0e
0e
38
e0
80
ENDCHAR
STARTCHAR question
ENCODING 63
SWIDTH 438 0
DWIDTH 8 0
BBX 7 14 0 0
BITMAP
7c
7c
c6
c6
06
0c
1c
18
30
30
00
00
30
30
ENDCHAR
STARTCHAR at
ENCODING 64
SWIDTH 773 0
DWIDTH 14 0
BBX 13 17 0 -3
BITMAP
07c0
1fe0
3830
3018
6758
cfd8
ccd8
d8d8
d998
d998
d9b0
cff0
6ee0
7000
3800
1fc0
0780
ENDCHAR
STARTCHAR A
ENCODING 65
SWIDTH 606 0
DWIDTH 11 0
BBX 10 14 0 0
BITMAP
0c00
0c00
1e00
1e00
1200
3300
3300
3300
3f00
7f80
6180
6180
c0c0
c0c0
ENDCHAR
STARTCHAR B
ENCODING 66
SWIDTH 494 0
DWIDTH 9 0
BBX 8 14 0 0
BITMAP
fc
fe
c7
c3
c3
c7
fe
fe
c7
c3
c3
c7
fe
fc
ENDCHAR
STARTCHAR C
ENCODING 67
SWIDTH 603 0
DWIDTH 11 0
BBX 10 14 0 0
BITMAP
0e00
3f80
71c0
60c0
c000
c000
c000
c000
c000
c000
60c0
71c0
3f80
0e00
ENDCHAR
STARTCHAR D
ENCODING 68
SWIDTH 568 0
DWIDTH 10 0
BBX 9 14 0 0
BITMAP
f800
fe00
c700
c300
c180
c180
c180
c180
c180
c180
c300
c700
fe00
f800
ENDCHAR
STARTCHAR E
ENCODING 69
SWIDTH 475 0
DWIDTH 9 0
BBX 8 14 0 0
BITMAP
ff
ff
c0
c0
c0
c0
fe
fe
c0
c0
c0
c0
ff
ff
ENDCHAR
STARTCHAR F
ENCODING 70
SWIDTH 448 0
DWIDTH 8 0
BBX 7 14 0 0
BITMAP
fe
fe
c0
c0
c0
c0
fe
fe
c0
c0
c0
c0
c0
c0
ENDCHAR
STARTCHAR G
ENCODING 71
SWIDTH 619 0
DWIDTH 11 0
BBX 10 14 0 0
BITMAP
0e00
3f80
71c0
60c0
c0c0
c000
c000
c3c0
c3c0
c0c0
60c0
71c0
3fc0
0ec0
ENDCHAR
STARTCHAR H
ENCODING 72
SWIDTH 548 0
DWIDTH 10 0
BBX 9 14 0 0
BITMAP
c180
c180
c180
c180
c180
c180
ff80
ff80
c180
c180
c180
c180
c180
c180
ENDCHAR
STARTCHAR I
ENCODING 73
SWIDTH 162 0
DWIDTH 3 0
BBX 2 14 0 0
BITMAP
c0
c0
c0
c0
c0
c0
c0
c0
c0
c0
c0
c0
c0
c0
ENDCHAR
STARTCHAR J
ENCODING 74
SWIDTH 418 0
DWIDTH 8 0
BBX 7 14 0 0
BITMAP
06
06
06
06
06
06
06
06
06
c6
c6
ee
7c
38
ENDCHAR
STARTCHAR K
ENCODING 75
SWIDTH 563 0
DWIDTH 10 0
BBX 9 14 0 0
BITMAP
c180
c380
c700
ce00
dc00
f800
f000
f000
f800
dc00
ce00
c700
c380
c180
ENDCHAR
STARTCHAR L
ENCODING 76
SWIDTH 418 0
DWIDTH 8 0
BBX 7 14 0 0
BITMAP
c0
c0
c0
c0
c0
c0
c0
c0
c0
c0
c0
c0
fe
fe
ENDCHAR
STARTCHAR M
ENCODING 77
SWIDTH 721 0
DWIDTH 13 0
BBX 12 14 0 0
BITMAP
c030
c030
e070
e070
e070
f0f0
f0f0
f9f0
d9b0
dfb0
cf30
cf30
c630
c630
ENDCHAR
STARTCHAR N
ENCODING 78
SWIDTH 507 0
DWIDTH 9 0
BBX 8 14 0 0
BITMAP
c3
c3
e3
e3
f3
f3
db
db
cf
cf
c7
c7
c3
c3
ENDCHAR
STARTCHAR O
ENCODING 79
SWIDTH 655 0
DWIDTH 12 0
BBX 11 14 0 0
BITMAP
0e00
3f80
71c0
60c0
c060
c060
c060
c060
c060
c060
60c0
71c0
3f80
0e00
ENDCHAR
STARTCHAR P
ENCODING 80
SWIDTH 480 0
DWIDTH 9 0
BBX 8 14 0 0
BITMAP
fc
fe
c7
c3
c3
c7
fe
fc
c0
c0
c0
c0
c0
c0
ENDCHAR
STARTCHAR Q
ENCODING 81
SWIDTH 655 0
DWIDTH 12 0
BBX 11 14 0 0
BITMAP
0e00
3f80
71c0
60c0
c060
c060
c060
c060
c060
c660
6360
71c0
3fc0
0e60
ENDCHAR
STARTCHAR R
ENCODING 82
SWIDTH 529 0
DWIDTH 10 0
BBX 9 14 0 0
BITMAP
fe00
ff00
c380
c180
c180
c380
ff00
fe00
c700
c380
c180
c180
c180
c180
ENDCHAR
STARTCHAR S
ENCODING 83
SWIDTH 509 0
DWIDTH 9 0
BBX 8 14 0 0
BITMAP
3c
7e
e7
c3
c0
e0
7c
1e
03
03
c3
e7
7e
3c
ENDCHAR
STARTCHAR T
ENCODING 84
SWIDTH 518 0
DWIDTH 9 0
BBX 8 14 0 0
BITMAP
ff
ff
18
18
18
18
18
18
18
18
18
18
18
18
ENDCHAR
STARTCHAR U
ENCODING 85
SWIDTH 545 0
DWIDTH 10 0
BBX 9 14 0 0
BITMAP
c180
c180
c180
c180
c180
c180
c180
c180
c180
c180
c180
e380
7f00
3e00
ENDCHAR
STARTCHAR V
ENCODING 86
SWIDTH 595 0
DWIDTH 11 0
BBX 10 14 0 0
BITMAP
c0c0
c0c0
6180
6180
6180
3300
3300
3300
3300
1200
1e00
1e00
0c00
0c00
ENDCHAR
STARTCHAR W
ENCODING 87
SWIDTH 829 0
DWIDTH 15 0
BBX 14 14 0 0
BITMAP
c30c
c30c
c30c
6318
6798
6798
37b0
37b0
34b0
3cf0
1ce0
1860
1860
1860
ENDCHAR
STARTCHAR X
ENCODING 88
SWIDTH 517 0
DWIDTH 9 0
BBX 8 14 0 0
BITMAP
c3
c3
66
66
3c
3c
18
18
3c
7e
66
e7
c3
c3
ENDCHAR
STARTCHAR Y
ENCODING 89
SWIDTH 606 0
DWIDTH 11 0
BBX 10 14 0 0
BITMAP
c0c0
e1c0
6180
3300
3300
1e00
1e00
0c00
0c00
0c00
0c00
0c00
0c00
0c00
ENDCHAR
STARTCHAR Z
ENCODING 90
SWIDTH 504 0
DWIDTH 9 0
BBX 8 14 0 0
BITMAP
7f
7f
03
07
06
0c
1c
18
38
30
60
60
ff
ff
ENDCHAR
STARTCHAR bracketleft
ENCODING 91
SWIDTH 194 0
DWIDTH 4 0
BBX 3 18 0 -4
BITMAP
e0
c0
c0
c0
c0
c0
c0
c0
c0
c0
c0
c0
c0
c0
c0
c0
e0
e0
ENDCHAR
STARTCHAR backslash
ENCODING 92
SWIDTH 292 0
DWIDTH 5 0
BBX 4 14 0 0
BITMAP
80
80
80
40
40
40
40
20
20
20
20
10
10
10
ENDCHAR
STARTCHAR bracketright
ENCODING 93
SWIDTH 235 0
DWIDTH 4 0
BBX 3 18 0 -4
BITMAP
e0
60
60
60
60
60
60
60
60
60
60
60
60
60
60
60
e0
e0
ENDCHAR
STARTCHAR asciicircum
ENCODING 94
SWIDTH 344 0
DWIDTH 6 0
BBX 5 7 0 7
BITMAP
20
20
70
50
d8
88
88
ENDCHAR
STARTCHAR underscore
ENCODING 95
SWIDTH 497 0
DWIDTH 9 0
BBX 8 1 0 -3
BITMAP
ff
ENDCHAR
STARTCHAR grave
ENCODING 96
SWIDTH 243 0
DWIDTH 4 0
BBX 3 2 0 11
BITMAP
c0
60
ENDCHAR
STARTCHAR a
ENCODING 97
SWIDTH 487 0
DWIDTH 9 0
BBX 8 10 0 0
BITMAP
3c
7e
66
06
7e
f6
c6
ce
ff
7b
ENDCHAR
STARTCHAR b
ENCODING 98
SWIDTH 500 0
DWIDTH 9 0
BBX 8 14 0 0
BITMAP
c0
c0
c0
c0
dc
fe
e7
c3
c3
c3
c3
e7
fe
dc
ENDCHAR
STARTCHAR c
ENCODING 99
SWIDTH 449 0
DWIDTH 8 0
BBX 7 10 0 0
BITMAP
3c
7e
e6
c0
c0
c0
c0
e6
7e
3c
ENDCHAR
STARTCHAR d
ENCODING 100
SWIDTH 502 0
DWIDTH 9 0
BBX 8 14 0 0
BITMAP
03
03
03
03
3b
7f
e7
c3
c3
c3
c3
e7
7f
3b
ENDCHAR
STARTCHAR e
ENCODING 101
SWIDTH 473 0
DWIDTH 9 0
BBX 8 10 0 0
BITMAP
3c
7e
e7
c3
ff
ff
c0
e3
7e
3c
ENDCHAR
STARTCHAR f
ENCODING 102
SWIDTH 285 0
DWIDTH 5 0
BBX 4 14 0 0
BITMAP
30
70
60
60
f0
f0
60
60
60
60
60
60
60
60
ENDCHAR
STARTCHAR g
ENCODING 103
SWIDTH 498 0
DWIDTH 9 0
BBX 8 14 0 -4
BITMAP
3b
7f
e7
c3
c3
c3
c3
e7
7f
3b
03
67
7e
3c
ENDCHAR
STARTCHAR h
ENCODING 104
SWIDTH 431 0
DWIDTH 8 0
BBX 7 14 0 0
BITMAP
c0
c0
c0
c0
dc
fe
e6
c6
c6
c6
c6
c6
c6
c6
ENDCHAR
STARTCHAR i
ENCODING 105
SWIDTH 155 0
DWIDTH 3 0
BBX 2 14 0 0
BITMAP
c0
c0
c0
00
c0
c0
c0
c0
c0
c0
c0
c0
c0
c0
ENDCHAR
STARTCHAR j
ENCODING 106
SWIDTH 181 0
DWIDTH 3 0
BBX 3 18 -1 -4
BITMAP
60
60
60
00
60
60
60
60
60
60
60
60
60
60
60
60
e0
c0
ENDCHAR
STARTCHAR k
ENCODING 107
SWIDTH 437 0
DWIDTH 8 0
BBX 7 14 0 0
BITMAP
c0
c0
c0
c0
ce
dc
f8
f0
f0
d8
dc
cc
ce
c6
ENDCHAR
STARTCHAR l
ENCODING 108
SWIDTH 154 0
DWIDTH 3 0
BBX 2 14 0 0
BITMAP
c0
c0
c0
c0
c0
c0
c0
c0
c0
c0
c0
c0
c0
c0
ENDCHAR
STARTCHAR m
ENCODING 109
SWIDTH 618 0
DWIDTH 11 0
BBX 10 10 0 0
BITMAP
db80
ffc0
ccc0
ccc0
ccc0
ccc0
ccc0
ccc0
ccc0
ccc0
ENDCHAR
STARTCHAR n
ENCODING 110
SWIDTH 431 0
DWIDTH 8 0
BBX 7 10 0 0
BITMAP
dc
fe
e6
c6
c6
c6
c6
c6
c6
c6
ENDCHAR
STARTCHAR o
ENCODING 111
SWIDTH 481 0
DWIDTH 9 0
BBX 8 10 0 0
BITMAP
3c
7e
e7
c3
c3
c3
c3
e7
7e
3c
ENDCHAR
STARTCHAR p
ENCODING 112
SWIDTH 500 0
DWIDTH 9 0
BBX 8 14 0 -4
BITMAP
dc
fe
e7
c3
c3
c3
c3
e7
fe
dc
c0
c0
c0
c0
ENDCHAR
STARTCHAR q
ENCODING 113
SWIDTH 500 0
DWIDTH 9 0
BBX 8 14 0 -4
BITMAP
3b
7f
e7
c3
c3
c3
c3
e7
7f
3b
03
03
03
03
ENDCHAR
STARTCHAR r
ENCODING 114
SWIDTH 331 0
DWIDTH 6 0
BBX 5 10 0 0
BITMAP
d8
f8
e0
c0
c0
c0
c0
c0
c0
c0
ENDCHAR
STARTCHAR s
ENCODING 115
SWIDTH 395 0
DWIDTH 7 0
BBX 6 10 0 0
BITMAP
78
fc
cc
c0
70
38
0c
cc
fc
78
ENDCHAR
STARTCHAR t
ENCODING 116
SWIDTH 281 0
DWIDTH 5 0
BBX 4 13 0 0
BITMAP
60
60
60
f0
f0
60
60
60
60
60
60
70
70
ENDCHAR
STARTCHAR u
ENCODING 117
SWIDTH 427 0
DWIDTH 8 0
BBX 7 10 0 0
BITMAP
c6
c6
c6
c6
c6
c6
c6
ce
fe
76
ENDCHAR
STARTCHAR v
ENCODING 118
SWIDTH 478 0
DWIDTH 9 0
BBX 8 10 0 0
BITMAP
c3
c3
c3
66
66
66
3c
3c
18
18
ENDCHAR
STARTCHAR w
ENCODING 119
SWIDTH 611 0
DWIDTH 11 0
BBX 10 10 0 0
BITMAP
ccc0
ccc0
ccc0
ccc0
4c80
7f80
7380
3300
3300
3300
ENDCHAR
STARTCHAR x
ENCODING 120
SWIDTH 393 0
DWIDTH 7 0
BBX 6 10 0 0
BITMAP
cc
cc
78
78
30
30
78
78
cc
cc
ENDCHAR
STARTCHAR y
ENCODING 121
SWIDTH 433 0
DWIDTH 8 0
BBX 7 14 0 -4
BITMAP
c6
c6
c6
6c
6c
6c
68
38
30
30
30
60
60
c0
ENDCHAR
STARTCHAR z
ENCODING 122
SWIDTH 399 0
DWIDTH 7 0
BBX 6 10 0 0
BITMAP
fc
fc
0c
18
30
60
60
c0
fc
fc
ENDCHAR
STARTCHAR braceleft
ENCODING 123
SWIDTH 273 0
DWIDTH 5 0
BBX 4 18 0 -4
BITMAP
30
70
60
60
60
60
60
60
60
c0
60
60
60
60
60
60
70
30
ENDCHAR
STARTCHAR bar
ENCODING 124
SWIDTH 109 0
DWIDTH 2 0
BBX 1 18 0 -4
BITMAP
80
80
80
80
80
80
80
80
80
80
80
80
80
80
80
80
80
80
ENDCHAR
STARTCHAR braceright
ENCODING 125
SWIDTH 274 0
DWIDTH 5 0
BBX 4 18 0 -4
BITMAP
c0
e0
60
60
60
60
60
60
60
30
60
60
60
60
60
60
e0
c0
ENDCHAR
STARTCHAR asciitilde
ENCODING 126
SWIDTH 477 0
DWIDTH 9 0
BBX 8 4 0 4
BITMAP
60
f3
9e
0c
ENDCHAR
STARTCHAR quotesinglbase
ENCODING 130
SWIDTH 167 0
DWIDTH 3 0
BBX 2 4 0 -2
BITMAP
c0
c0
40
80
ENDCHAR
STARTCHAR florin
ENCODING 131
SWIDTH 501 0
DWIDTH 9 0
BBX 8 18 0 -4
BITMAP
07
0f
0c
0c
0c
3e
3e
18
18
18
18
30
30
30
30
60
e0
c0
ENDCHAR
STARTCHAR quotedblbase
ENCODING 132
SWIDTH 342 0
DWIDTH 6 0
BBX 5 4 0 -2
BITMAP
d8
d8
48
90
ENDCHAR
STARTCHAR ellipsis
ENCODING 133
SWIDTH 711 0
DWIDTH 13 0
BBX 12 2 0 0
BITMAP
c630
c630
ENDCHAR
STARTCHAR dagger
ENCODING 134
SWIDTH 427 0
DWIDTH 8 0
BBX 7 16 0 -3
BITMAP
10
10
10
10
fe
10
10
10
10
10
10
10
10
10
10
10
ENDCHAR
STARTCHAR daggerdbl
ENCODING 135
SWIDTH 386 0
DWIDTH 7 0
BBX 6 17 0 -3
BITMAP
30
30
30
30
fc
fc
30
30
30
30
30
30
fc
fc
30
30
30
ENDCHAR
STARTCHAR circumflex
ENCODING 136
SWIDTH 279 0
DWIDTH 5 0
BBX 4 3 0 11
BITMAP
60
f0
90
ENDCHAR
STARTCHAR perthousand
ENCODING 137
SWIDTH 851 0
DWIDTH 15 0
BBX 14 14 0 0
BITMAP
6100
f300
9300
9200
f600
6400
0c00
0800
1b18
1fbc
34a4
34a4
67bc
4318
ENDCHAR
STARTCHAR Scaron
ENCODING 138
SWIDTH 470 0
DWIDTH 8 0
BBX 8 17 0 0
BITMAP
66
3c
18
3c
7e
e7
c3
c0
e0
7c
1e
03
03
c3
e7
7e
3c
ENDCHAR
STARTCHAR guilsinglleft
ENCODING 139
SWIDTH 210 0
DWIDTH 4 0
BBX 3 6 0 2
BITMAP
20
60
c0
c0
60
20
ENDCHAR
STARTCHAR OE
ENCODING 140
SWIDTH 843 0
DWIDTH 15 0
BBX 14 14 0 0
BITMAP
0efc
3ffc
7380
6180
c180
c180
c1f8
c1f8
c180
c180
6180
7380
3ffc
0efc
ENDCHAR
STARTCHAR quoteleft
ENCODING 145
SWIDTH 167 0
DWIDTH 3 0
BBX 2 4 0 10
BITMAP
40
80
c0
c0
ENDCHAR
STARTCHAR quoteright
ENCODING 146
SWIDTH 167 0
DWIDTH 3 0
BBX 2 4 0 10
BITMAP
c0
c0
40
80
ENDCHAR
STARTCHAR quotedblleft
ENCODING 147
SWIDTH 342 0
DWIDTH 6 0
BBX 5 4 0 10
BITMAP
48
90
d8
d8
ENDCHAR
STARTCHAR quotedblright
ENCODING 148
SWIDTH 342 0
DWIDTH 6 0
BBX 5 4 0 10
BITMAP
d8
d8
48
90
ENDCHAR
STARTCHAR bullet
ENCODING 149
SWIDTH 258 0
DWIDTH 5 0
BBX 4 5 0 4
BITMAP
60
f0
f0
f0
60
ENDCHAR
STARTCHAR endash
ENCODING 150
SWIDTH 540 0
DWIDTH 10 0
BBX 9 1 0 5
BITMAP
ff80
ENDCHAR
STARTCHAR emdash
ENCODING 151
SWIDTH 708 0
DWIDTH 13 0
BBX 11 1 0 5
BITMAP
ffe0
ENDCHAR
STARTCHAR tilde
ENCODING 152
SWIDTH 321 0
DWIDTH 6 0
BBX 5 3 0 11
BITMAP
68
f8
b0
ENDCHAR
STARTCHAR trademark
ENCODING 153
SWIDTH 769 0
DWIDTH 14 0
BBX 13 7 0 6
BITMAP
fa08
2318
2318
22a8
22a8
2248
2248
ENDCHAR
STARTCHAR scaron
ENCODING 154
SWIDTH 368 0
DWIDTH 7 0
BBX 6 14 0 0
BITMAP
cc
78
30
00
78
fc
cc
c0
70
38
0c
cc
fc
78
ENDCHAR
STARTCHAR guilsinglright
ENCODING 155
SWIDTH 211 0
DWIDTH 4 0
BBX 3 6 0 2
BITMAP
80
c0
60
60
c0
80
ENDCHAR
STARTCHAR oe
ENCODING 156
SWIDTH 792 0
DWIDTH 14 0
BBX 13 10 0 0
BITMAP
3ce0
7ff0
e7b8
c318
c3f8
c3f8
c300
e718
7ff0
3ce0
ENDCHAR
STARTCHAR Ydieresis
ENCODING 159
SWIDTH 589 0
DWIDTH 11 0
BBX 10 14 0 0
BITMAP
3600
3600
0000
0000
c0c0
e1c0
6180
3300
1e00
0c00
0c00
0c00
0c00
0c00
ENDCHAR
STARTCHAR nbspace
ENCODING 160
SWIDTH -32768 0
DWIDTH -4718 0
BBX 0 0 0 0
BITMAP
ENDCHAR
STARTCHAR exclamdown
ENCODING 161
SWIDTH 163 0
DWIDTH 3 0
BBX 2 14 0 -4
BITMAP
c0
c0
00
c0
c0
c0
c0
c0
c0
c0
c0
c0
c0
c0
ENDCHAR
STARTCHAR cent
ENCODING 162
SWIDTH 420 0
DWIDTH 8 0
BBX 7 14 0 -2
BITMAP
04
04
3c
7e
ee
ca
d8
d0
d2
f6
7e
3c
20
20
ENDCHAR
STARTCHAR sterling
ENCODING 163
SWIDTH 496 0
DWIDTH 9 0
BBX 8 14 0 0
BITMAP
3c
7e
e7
c3
c3
c0
60
fc
30
30
30
7b
7f
ce
ENDCHAR
STARTCHAR currency
ENCODING 164
SWIDTH 388 0
DWIDTH 7 0
BBX 6 9 0 2
BITMAP
cc
78
78
cc
cc
cc
78
78
cc
ENDCHAR
STARTCHAR yen
ENCODING 165
SWIDTH 512 0
DWIDTH 9 0
BBX 8 14 0 0
BITMAP
c3
c3
c3
66
66
3c
3c
ff
ff
18
ff
ff
18
18
ENDCHAR
STARTCHAR brokenbar
ENCODING 166
SWIDTH 109 0
DWIDTH 2 0
BBX 1 13 0 0
BITMAP
80
80
80
80
80
00
00
00
80
80
80
80
80
ENDCHAR
STARTCHAR section
ENCODING 167
SWIDTH 429 0
DWIDTH 8 0
BBX 7 18 0 -4
BITMAP
38
7c
4c
64
70
f8
dc
8e
c6
e2
76
3c
1c
0c
44
64
7c
38
ENDCHAR
STARTCHAR dieresis
ENCODING 168
SWIDTH 329 0
DWIDTH 6 0
BBX 5 2 0 11
BITMAP
d8
d8
ENDCHAR
STARTCHAR copyright
ENCODING 169
SWIDTH 794 0
DWIDTH 14 0
BBX 13 13 0 0
BITMAP
0f80
3060
4010
4710
8888
9008
9008
9008
8888
4710
4010
3060
0f80
ENDCHAR
STARTCHAR ordfeminine
ENCODING 170
SWIDTH 346 0
DWIDTH 6 0
BBX 5 8 0 6
BITMAP
60
90
70
d0
90
f8
00
f8
ENDCHAR
STARTCHAR guillemotleft
ENCODING 171
SWIDTH 379 0
DWIDTH 7 0
BBX 6 6 0 2
BITMAP
24
6c
d8
d8
6c
24
ENDCHAR
STARTCHAR logicalnot
ENCODING 172
SWIDTH 459 0
DWIDTH 8 0
BBX 7 4 0 3
BITMAP
fe
02
02
02
ENDCHAR
STARTCHAR minus
ENCODING 173
SWIDTH 459 0
DWIDTH 8 0
BBX 7 1 0 4
BITMAP
fe
ENDCHAR
STARTCHAR registered
ENCODING 174
SWIDTH 783 0
DWIDTH 14 0
BBX 13 13 0 0
BITMAP
0f80
3060
4010
4f90
8848
8848
8f88
8908
8888
4850
4010
3060
0f80
ENDCHAR
STARTCHAR macron
ENCODING 175
SWIDTH 297 0
DWIDTH 5 0
BBX 4 2 0 11
BITMAP
f0
f0
ENDCHAR
STARTCHAR degree
ENCODING 176
SWIDTH 336 0
DWIDTH 6 0
BBX 5 5 0 9
BITMAP
70
d8
88
d8
70
ENDCHAR
STARTCHAR plusminus
ENCODING 177
SWIDTH 550 0
DWIDTH 10 0
BBX 9 9 0 1
BITMAP
0800
0800
0800
ff80
0800
0800
0800
0000
ff80
ENDCHAR
STARTCHAR twosuperior
ENCODING 178
SWIDTH 338 0
DWIDTH 6 0
BBX 5 8 0 5
BITMAP
70
c8
88
08
30
60
c0
f8
ENDCHAR
STARTCHAR threesuperior
ENCODING 179
SWIDTH 340 0
DWIDTH 6 0
BBX 5 8 0 5
BITMAP
70
90
10
30
10
88
98
70
ENDCHAR
STARTCHAR acute
ENCODING 180
SWIDTH 284 0
DWIDTH 5 0
BBX 4 3 0 11
BITMAP
30
60
c0
ENDCHAR
STARTCHAR mu
ENCODING 181
SWIDTH 575 0
DWIDTH 10 0
BBX 9 14 0 -4
BITMAP
c000
c180
c180
c180
c180
c180
c180
c380
ff80
fd80
c000
c000
c000
c000
ENDCHAR
STARTCHAR paragraph
ENCODING 182
SWIDTH 471 0
DWIDTH 8 0
BBX 7 17 0 -3
BITMAP
3e
74
f4
f4
f4
f4
f4
74
34
14
14
14
14
14
14
14
14
ENDCHAR
STARTCHAR periodcentered
ENCODING 183
SWIDTH 143 0
DWIDTH 3 0
BBX 2 2 0 6
BITMAP
c0
c0
ENDCHAR
STARTCHAR cedilla
ENCODING 184
SWIDTH 258 0
DWIDTH 5 0
BBX 4 4 0 -4
BITMAP
40
70
30
e0
ENDCHAR
STARTCHAR onesuperior
ENCODING 185
SWIDTH 235 0
DWIDTH 4 0
BBX 3 8 0 5
BITMAP
20
e0
e0
20
20
20
20
20
ENDCHAR
STARTCHAR ordmasculine
ENCODING 186
SWIDTH 343 0
DWIDTH 6 0
BBX 5 8 0 6
BITMAP
70
d8
88
88
d8
70
00
f8
ENDCHAR
STARTCHAR guillemotright
ENCODING 187
SWIDTH 379 0
DWIDTH 7 0
BBX 6 6 0 2
BITMAP
90
d8
6c
6c
d8
90
ENDCHAR
STARTCHAR onequarter
ENCODING 188
SWIDTH 626 0
DWIDTH 11 0
BBX 10 13 0 0
BITMAP
2080
e080
2100
2100
2200
2240
24c0
24c0
0940
0a40
13c0
1040
2040
ENDCHAR
STARTCHAR onehalf
ENCODING 189
SWIDTH 641 0
DWIDTH 12 0
BBX 11 13 0 0
BITMAP
6100
e100
6200
6200
6600
65c0
6720
6a20
0820
18c0
1180
3300
23e0
ENDCHAR
STARTCHAR threequarters
ENCODING 190
SWIDTH 669 0
DWIDTH 12 0
BBX 11 13 0 0
BITMAP
6080
9080
9100
1100
2200
1200
94c0
64c0
0940
0a40
13e0
1040
2040
ENDCHAR
STARTCHAR questiondown
ENCODING 191
SWIDTH 437 0
DWIDTH 8 0
BBX 7 14 0 -4
BITMAP
30
30
00
30
30
30
30
60
c0
c6
c6
ce
7c
38
ENDCHAR
STARTCHAR Agrave
ENCODING 192
SWIDTH 606 0
DWIDTH 11 0
BBX 10 14 0 0
BITMAP
1800
0c00
0600
0000
0c00
0c00
1e00
3300
3300
7f80
7f80
6180
c0c0
c0c0
ENDCHAR
STARTCHAR Aacute
ENCODING 193
SWIDTH 606 0
DWIDTH 11 0
BBX 10 14 0 0
BITMAP
0600
0c00
1800
0000
0c00
0c00
1e00
3300
3300
7f80
7f80
6180
c0c0
c0c0
ENDCHAR
STARTCHAR Acircumflex
ENCODING 194
SWIDTH 606 0
DWIDTH 11 0
BBX 10 14 0 0
BITMAP
0c00
1e00
1200
0000
0c00
0c00
1e00
3300
3300
7f80
7f80
6180
c0c0
c0c0
ENDCHAR
STARTCHAR Atilde
ENCODING 195
SWIDTH 606 0
DWIDTH 11 0
BBX 10 14 0 0
BITMAP
0d00
1f00
1600
0000
0c00
0c00
1e00
3300
3300
7f80
7f80
6180
c0c0
c0c0
ENDCHAR
STARTCHAR Adieresis
ENCODING 196
SWIDTH 606 0
DWIDTH 11 0
BBX 10 14 0 0
BITMAP
3600
3600
0000
0000
0c00
0c00
1e00
3300
3300
7f80
7f80
6180
c0c0
c0c0
ENDCHAR
STARTCHAR Aring
ENCODING 197
SWIDTH 606 0
DWIDTH 11 0
BBX 10 14 0 0
BITMAP
1c00
3600
3600
1c00
0c00
0c00
1e00
3300
3300
7f80
7f80
6180
c0c0
c0c0
ENDCHAR
STARTCHAR AE
ENCODING 198
SWIDTH 773 0
DWIDTH 14 0
BBX 13 14 0 0
BITMAP
0ff8
1ff8
1b00
1b00
1300
3300
33f8
33f8
7f00
7f00
6300
c300
c3f8
c3f8
ENDCHAR
STARTCHAR Ccedilla
ENCODING 199
SWIDTH 603 0
DWIDTH 11 0
BBX 10 18 0 -4
BITMAP
0e00
3f80
71c0
60c0
c000
c000
c000
c000
c000
c000
60c0
71c0
3f80
0e00
0800
0e00
0600
1c00
ENDCHAR
STARTCHAR Egrave
ENCODING 200
SWIDTH 475 0
DWIDTH 9 0
BBX 8 14 0 0
BITMAP
30
18
0c
00
ff
ff
c0
c0
fc
fc
c0
c0
ff
ff
ENDCHAR
STARTCHAR Eacute
ENCODING 201
SWIDTH 516 0
DWIDTH 9 0
BBX 8 14 0 0
BITMAP
0c
18
30
00
ff
ff
c0
c0
fc
fc
c0
c0
ff
ff
ENDCHAR
STARTCHAR Ecircumflex
ENCODING 202
SWIDTH 475 0
DWIDTH 9 0
BBX 8 14 0 0
BITMAP
18
3c
24
00
ff
ff
c0
c0
fc
fc
c0
c0
ff
ff
ENDCHAR
STARTCHAR Edieresis
ENCODING 203
SWIDTH 475 0
DWIDTH 9 0
BBX 8 14 0 0
BITMAP
6c
6c
00
00
ff
ff
c0
c0
fc
fc
c0
c0
ff
ff
ENDCHAR
STARTCHAR Igrave
ENCODING 204
SWIDTH 243 0
DWIDTH 4 0
BBX 3 14 0 0
BITMAP
c0
60
20
00
60
60
60
60
60
60
60
60
60
60
ENDCHAR
STARTCHAR Iacute
ENCODING 205
SWIDTH 243 0
DWIDTH 4 0
BBX 3 14 0 0
BITMAP
60
c0
80
00
c0
c0
c0
c0
c0
c0
c0
c0
c0
c0
ENDCHAR
STARTCHAR Icircumflex
ENCODING 206
SWIDTH 279 0
DWIDTH 5 0
BBX 4 14 0 0
BITMAP
60
f0
90
00
60
60
60
60
60
60
60
60
60
60
ENDCHAR
STARTCHAR Idieresis
ENCODING 207
SWIDTH 329 0
DWIDTH 6 0
BBX 5 14 0 0
BITMAP
d8
d8
00
00
60
60
60
60
60
60
60
60
60
60
ENDCHAR
STARTCHAR Eth
ENCODING 208
SWIDTH 620 0
DWIDTH 11 0
BBX 10 13 0 0
BITMAP
7e00
7f80
6180
60c0
60c0
f8c0
f8c0
60c0
60c0
60c0
6180
7f80
7f00
ENDCHAR
STARTCHAR Ntilde
ENCODING 209
SWIDTH 507 0
DWIDTH 9 0
BBX 8 14 0 0
BITMAP
34
7c
58
00
f3
f3
db
db
cf
cf
c7
c7
c3
c3
ENDCHAR
STARTCHAR Ograve
ENCODING 210
SWIDTH 655 0
DWIDTH 12 0
BBX 11 14 0 0
BITMAP
1800
0c00
0600
0000
0e00
3f80
71c0
c060
c060
c060
c060
71c0
3f80
0e00
ENDCHAR
STARTCHAR Oacute
ENCODING 211
SWIDTH 655 0
DWIDTH 12 0
BBX 11 14 0 0
BITMAP
0600
0c00
1800
0000
0e00
3f80
71c0
c060
c060
c060
c060
71c0
3f80
0e00
ENDCHAR
STARTCHAR Ocircumflex
ENCODING 212
SWIDTH 655 0
DWIDTH 12 0
BBX 11 14 0 0
BITMAP
0c00
1e00
1200
0000
0e00
3f80
71c0
c060
c060
c060
c060
71c0
3f80
0e00
ENDCHAR
STARTCHAR Otilde
ENCODING 213
SWIDTH 655 0
DWIDTH 12 0
BBX 11 14 0 0
BITMAP
0d00
1f00
1600
0000
0e00
3f80
71c0
c060
c060
c060
c060
71c0
3f80
0e00
ENDCHAR
STARTCHAR Odieresis
ENCODING 214
SWIDTH 655 0
DWIDTH 12 0
BBX 11 14 0 0
BITMAP
1b00
1b00
0000
0000
0e00
3f80
71c0
c060
c060
c060
c060
71c0
3f80
0e00
ENDCHAR
STARTCHAR multiply
ENCODING 215
SWIDTH 440 0
DWIDTH 8 0
BBX 7 9 0 0
BITMAP
82
c6
6c
38
10
38
6c
c6
82
ENDCHAR
STARTCHAR Oslash
ENCODING 216
SWIDTH 660 0
DWIDTH 12 0
BBX 11 14 0 0
BITMAP
0f20
3fc0
70c0
6160
c260
c260
c460
c860
c860
d060
60c0
61c0
7f80
8e00
ENDCHAR
STARTCHAR Ugrave
ENCODING 217
SWIDTH 545 0
DWIDTH 10 0
BBX 9 14 0 0
BITMAP
3000
1800
0c00
0000
c180
c180
c180
c180
c180
c180
c180
e380
7f00
3e00
ENDCHAR
STARTCHAR Uacute
ENCODING 218
SWIDTH 545 0
DWIDTH 10 0
BBX 9 14 0 0
BITMAP
0c00
1800
3000
0000
c180
c180
c180
c180
c180
c180
c180
e380
7f00
3e00
ENDCHAR
STARTCHAR Ucircumflex
ENCODING 219
SWIDTH 545 0
DWIDTH 10 0
BBX 9 14 0 0
BITMAP
1800
3c00
2400
0000
c180
c180
c180
c180
c180
c180
c180
e380
7f00
3e00
ENDCHAR
STARTCHAR Udieresis
ENCODING 220
SWIDTH 553 0
DWIDTH 10 0
BBX 9 14 0 0
BITMAP
3600
3600
0000
0000
c180
c180
c180
c180
c180
c180
c180
e380
7f00
3e00
ENDCHAR
STARTCHAR Yacute
ENCODING 221
SWIDTH 549 0
DWIDTH 10 0
BBX 10 16 0 0
BITMAP
1800
3000
c0c0
e1c0
6180
3300
3300
1e00
1e00
0c00
0c00
0c00
0c00
0c00
0c00
0c00
ENDCHAR
STARTCHAR Thorn
ENCODING 222
SWIDTH 480 0
DWIDTH 9 0
BBX 8 13 0 0
BITMAP
80
80
fe
83
81
81
81
81
83
fe
80
80
80
ENDCHAR
STARTCHAR germandbls
ENCODING 223
SWIDTH 445 0
DWIDTH 8 0
BBX 7 14 0 0
BITMAP
38
7c
ce
c6
c6
ce
dc
dc
ce
c6
c6
c6
de
dc
ENDCHAR
STARTCHAR agrave
ENCODING 224
SWIDTH 487 0
DWIDTH 9 0
BBX 8 14 0 0
BITMAP
30
18
0c
00
3c
7e
66
06
7e
f6
c6
ce
ff
7b
ENDCHAR
STARTCHAR aacute
ENCODING 225
SWIDTH 487 0
DWIDTH 9 0
BBX 8 14 0 0
BITMAP
0c
18
30
00
3c
7e
66
06
7e
f6
c6
ce
ff
7b
ENDCHAR
STARTCHAR acircumflex
ENCODING 226
SWIDTH 487 0
DWIDTH 9 0
BBX 8 14 0 0
BITMAP
18
3c
24
00
3c
7e
66
06
7e
f6
c6
ce
ff
7b
ENDCHAR
STARTCHAR atilde
ENCODING 227
SWIDTH 487 0
DWIDTH 9 0
BBX 8 14 0 0
BITMAP
34
7c
58
00
3c
7e
66
06
7e
f6
c6
ce
ff
7b
ENDCHAR
STARTCHAR adieresis
ENCODING 228
SWIDTH 487 0
DWIDTH 9 0
BBX 8 13 0 0
BITMAP
6c
6c
00
3c
7e
66
06
7e
f6
c6
ce
ff
7b
ENDCHAR
STARTCHAR aring
ENCODING 229
SWIDTH 487 0
DWIDTH 9 0
BBX 8 14 0 0
BITMAP
1c
36
36
1c
3c
7e
66
06
7e
f6
c6
ce
ff
7b
ENDCHAR
STARTCHAR ae
ENCODING 230
SWIDTH 706 0
DWIDTH 13 0
BBX 12 10 0 0
BITMAP
39c0
7fe0
6770
0630
7ff0
fff0
c600
ce30
ffe0
79c0
ENDCHAR
STARTCHAR ccedilla
ENCODING 231
SWIDTH 449 0
DWIDTH 8 0
BBX 7 14 0 -4
BITMAP
3c
7e
e6
c0
c0
c0
c0
e6
7e
3c
20
38
18
70
ENDCHAR
STARTCHAR egrave
ENCODING 232
SWIDTH 473 0
DWIDTH 9 0
BBX 8 14 0 0
BITMAP
30
18
0c
00
3c
7e
e7
c3
ff
ff
c0
e3
7e
3c
ENDCHAR
STARTCHAR eacute
ENCODING 233
SWIDTH 473 0
DWIDTH 9 0
BBX 8 14 0 0
BITMAP
0c
18
30
00
3c
7e
e7
c3
ff
ff
c0
e3
7e
3c
ENDCHAR
STARTCHAR ecircumflex
ENCODING 234
SWIDTH 473 0
DWIDTH 9 0
BBX 8 14 0 0
BITMAP
18
3c
24
00
3c
7e
e7
c3
ff
ff
c0
e3
7e
3c
ENDCHAR
STARTCHAR edieresis
ENCODING 235
SWIDTH 473 0
DWIDTH 9 0
BBX 8 13 0 0
BITMAP
6c
6c
00
3c
7e
e7
c3
ff
ff
c0
e3
7e
3c
ENDCHAR
STARTCHAR igrave
ENCODING 236
SWIDTH 243 0
DWIDTH 4 0
BBX 4 14 0 0
BITMAP
c0
60
30
00
60
60
60
60
60
60
60
60
60
60
ENDCHAR
STARTCHAR iacute
ENCODING 237
SWIDTH 284 0
DWIDTH 5 0
BBX 4 14 0 0
BITMAP
30
60
c0
00
60
60
60
60
60
60
60
60
60
60
ENDCHAR
STARTCHAR icircumflex
ENCODING 238
SWIDTH 279 0
DWIDTH 5 0
BBX 4 14 0 0
BITMAP
60
f0
90
00
60
60
60
60
60
60
60
60
60
60
ENDCHAR
STARTCHAR idieresis
ENCODING 239
SWIDTH 329 0
DWIDTH 6 0
BBX 5 13 0 0
BITMAP
d8
d8
00
60
60
60
60
60
60
60
60
60
60
ENDCHAR
STARTCHAR eth
ENCODING 240
SWIDTH 482 0
DWIDTH 9 0
BBX 8 14 0 0
BITMAP
6c
38
7c
ee
86
7b
ff
c7
c3
c3
c3
c7
fe
7c
ENDCHAR
STARTCHAR ntilde
ENCODING 241
SWIDTH 453 0
DWIDTH 8 0
BBX 7 14 0 0
BITMAP
34
7c
58
00
dc
fe
e6
c6
c6
c6
c6
c6
c6
c6
ENDCHAR
STARTCHAR ograve
ENCODING 242
SWIDTH 481 0
DWIDTH 9 0
BBX 8 14 0 0
BITMAP
30
18
0c
00
3c
7e
e7
c3
c3
c3
c3
e7
7e
3c
ENDCHAR
STARTCHAR oacute
ENCODING 243
SWIDTH 481 0
DWIDTH 9 0
BBX 8 14 0 0
BITMAP
0c
18
30
00
3c
7e
e7
c3
c3
c3
c3
e7
7e
3c
ENDCHAR
STARTCHAR ocircumflex
ENCODING 244
SWIDTH 481 0
DWIDTH 9 0
BBX 8 14 0 0
BITMAP
18
3c
24
00
3c
7e
e7
c3
c3
c3
c3
e7
7e
3c
ENDCHAR
STARTCHAR otilde
ENCODING 245
SWIDTH 458 0
DWIDTH 9 0
BBX 8 14 0 0
BITMAP
34
7c
58
00
3c
7e
e7
c3
c3
c3
c3
e7
7e
3c
ENDCHAR
STARTCHAR odieresis
ENCODING 246
SWIDTH 481 0
DWIDTH 9 0
BBX 8 13 0 0
BITMAP
6c
6c
00
3c
7e
e7
c3
c3
c3
c3
e7
7e
3c
ENDCHAR
STARTCHAR divide
ENCODING 247
SWIDTH 509 0
DWIDTH 9 0
BBX 8 9 0 1
BITMAP
18
18
00
00
ff
00
00
18
18
ENDCHAR
STARTCHAR oslash
ENCODING 248
SWIDTH 576 0
DWIDTH 10 0
BBX 9 10 0 0
BITMAP
1c80
3f00
7300
6700
6b00
7300
6300
6700
7e00
9c00
ENDCHAR
STARTCHAR ugrave
ENCODING 249
SWIDTH 427 0
DWIDTH 8 0
BBX 7 14 0 0
BITMAP
60
30
18
00
c6
c6
c6
c6
c6
c6
c6
ce
fe
76
ENDCHAR
STARTCHAR uacute
ENCODING 250
SWIDTH 427 0
DWIDTH 8 0
BBX 7 14 0 0
BITMAP
18
30
60
00
c6
c6
c6
c6
c6
c6
c6
ce
fe
76
ENDCHAR
STARTCHAR ucircumflex
ENCODING 251
SWIDTH 427 0
DWIDTH 8 0
BBX 7 14 0 0
BITMAP
30
78
48
00
c6
c6
c6
c6
c6
c6
c6
ce
fe
76
ENDCHAR
STARTCHAR udieresis
ENCODING 252
SWIDTH 427 0
DWIDTH 8 0
BBX 7 13 0 0
BITMAP
6c
6c
00
c6
c6
c6
c6
c6
c6
c6
ce
fe
76
ENDCHAR
STARTCHAR yacute
ENCODING 253
SWIDTH 424 0
DWIDTH 8 0
BBX 7 17 0 -4
BITMAP
30
60
00
c6
c6
c6
6c
6c
6c
68
38
30
30
30
60
60
c0
ENDCHAR
STARTCHAR thorn
ENCODING 254
SWIDTH 456 0
DWIDTH 8 0
BBX 7 17 0 -4
BITMAP
80
80
80
bc
c6
82
82
82
82
82
86
c6
bc
80
80
80
80
ENDCHAR
STARTCHAR ydieresis
ENCODING 255
SWIDTH 465 0
DWIDTH 8 0
BBX 7 17 0 -4
BITMAP
6c
6c
00
c6
c6
c6
6c
6c
6c
68
38
30
30
30
60
60
c0
ENDCHAR
STARTCHAR NUL
ENCODING -1
SWIDTH -32768 0
DWIDTH -4718 0
BBX 0 0 0 0
BITMAP
ENDCHAR
STARTCHAR Lslash
ENCODING -1
SWIDTH 490 0
DWIDTH 9 0
BBX 8 13 0 0
BITMAP
60
60
60
60
68
78
70
e0
e0
60
60
7f
7f
ENDCHAR
STARTCHAR lslash
ENCODING -1
SWIDTH 337 0
DWIDTH 6 0
BBX 5 13 0 0
BITMAP
60
60
60
68
78
70
60
e0
e0
60
60
60
60
ENDCHAR
STARTCHAR HT
ENCODING -1
SWIDTH -32768 0
DWIDTH 4 0
BBX 0 0 0 0
BITMAP
ENDCHAR
STARTCHAR LF
ENCODING -1
SWIDTH -32768 0
DWIDTH -4718 0
BBX 0 0 0 0
BITMAP
ENDCHAR
STARTCHAR CR
ENCODING -1
SWIDTH -32768 0
DWIDTH 0 0
BBX 0 0 0 0
BITMAP
ENDCHAR
STARTCHAR Zcaron
ENCODING -1
SWIDTH 485 0
DWIDTH 9 0
BBX 8 16 0 0
BITMAP
12
0c
00
ff
03
06
06
0c
08
18
10
30
60
60
c0
ff
ENDCHAR
STARTCHAR zcaron
ENCODING -1
SWIDTH 378 0
DWIDTH 7 0
BBX 6 13 0 0
BITMAP
24
18
00
00
fc
0c
18
10
30
60
60
c0
fc
ENDCHAR
STARTCHAR DLE
ENCODING -1
SWIDTH -32768 0
DWIDTH -4718 0
BBX 0 0 0 0
BITMAP
ENDCHAR
STARTCHAR DC1
ENCODING -1
SWIDTH -32768 0
DWIDTH -4718 0
BBX 0 0 0 0
BITMAP
ENDCHAR
STARTCHAR DC2
ENCODING -1
SWIDTH -32768 0
DWIDTH -4718 0
BBX 0 0 0 0
BITMAP
ENDCHAR
STARTCHAR DC3
ENCODING -1
SWIDTH -32768 0
DWIDTH -4718 0
BBX 0 0 0 0
BITMAP
ENDCHAR
STARTCHAR DC4
ENCODING -1
SWIDTH -32768 0
DWIDTH -4718 0
BBX 0 0 0 0
BITMAP
ENDCHAR
STARTCHAR RS
ENCODING -1
SWIDTH -32768 0
DWIDTH -4718 0
BBX 0 0 0 0
BITMAP
ENDCHAR
STARTCHAR US
ENCODING -1
SWIDTH -32768 0
DWIDTH -4718 0
BBX 0 0 0 0
BITMAP
ENDCHAR
STARTCHAR DEL
ENCODING -1
SWIDTH -32768 0
DWIDTH -4718 0
BBX 0 0 0 0
BITMAP
ENDCHAR
STARTCHAR notequal
ENCODING -1
SWIDTH 509 0
DWIDTH 9 0
BBX 8 9 0 0
BITMAP
0c
0c
ff
ff
18
ff
ff
30
30
ENDCHAR
STARTCHAR infinity
ENCODING -1
SWIDTH 704 0
DWIDTH 13 0
BBX 12 5 0 3
BITMAP
79e0
cf30
8610
cf30
79e0
ENDCHAR
STARTCHAR lessequal
ENCODING -1
SWIDTH 550 0
DWIDTH 10 0
BBX 9 12 0 0
BITMAP
0380
0f00
3c00
f000
c000
f000
3c00
0f00
0380
0000
ff80
ff80
ENDCHAR
STARTCHAR greaterequal
ENCODING -1
SWIDTH 550 0
DWIDTH 10 0
BBX 9 12 0 0
BITMAP
e000
7800
1e00
0780
0180
0780
1e00
7800
e000
0000
ff80
ff80
ENDCHAR
STARTCHAR partialdiff
ENCODING -1
SWIDTH 450 0
DWIDTH 8 0
BBX 7 13 0 0
BITMAP
78
8c
06
06
06
3e
66
c6
c6
c6
c4
ec
78
ENDCHAR
STARTCHAR summation
ENCODING -1
SWIDTH 716 0
DWIDTH 13 0
BBX 12 16 0 -3
BITMAP
ffe0
e060
7020
3800
1c00
0e00
0700
0300
0600
0c00
1800
3000
6010
c030
fff0
fff0
ENDCHAR
STARTCHAR product
ENCODING -1
SWIDTH 817 0
DWIDTH 15 0
BBX 14 16 0 -3
BITMAP
fffc
7878
3030
3030
3030
3030
3030
3030
3030
3030
3030
3030
3030
3030
7878
fcfc
ENDCHAR
STARTCHAR pi
ENCODING -1
SWIDTH 563 0
DWIDTH 10 0
BBX 9 9 0 0
BITMAP
7f80
ff80
9200
1200
1200
1200
3280
7380
6300
ENDCHAR
STARTCHAR integral
ENCODING -1
SWIDTH 408 0
DWIDTH 7 0
BBX 6 18 0 -5
BITMAP
1c
3c
30
30
30
30
30
30
30
30
30
30
30
30
30
30
e0
e0
ENDCHAR
STARTCHAR Omega
ENCODING -1
SWIDTH 775 0
DWIDTH 14 0
BBX 13 13 0 0
BITMAP
0700
18c0
3060
7070
6030
6030
6030
6030
3060
38e0
8888
f8f8
f8f8
ENDCHAR
STARTCHAR radical
ENCODING -1
SWIDTH 657 0
DWIDTH 12 0
BBX 11 14 0 0
BITMAP
0020
0060
0040
0080
3080
7100
d900
1900
1900
0d00
0d00
0600
0600
0600
ENDCHAR
STARTCHAR approxequal
ENCODING -1
SWIDTH 509 0
DWIDTH 9 0
BBX 8 7 0 2
BITMAP
73
ff
ce
00
73
ff
ce
ENDCHAR
STARTCHAR Delta
ENCODING -1
SWIDTH 653 0
DWIDTH 12 0
BBX 11 13 0 0
BITMAP
0400
0600
0e00
0b00
1300
1300
1180
2180
21c0
40c0
40c0
8060
ffe0
ENDCHAR
STARTCHAR lozenge
ENCODING -1
SWIDTH 556 0
DWIDTH 10 0
BBX 9 13 0 0
BITMAP
0800
1c00
3600
3600
6300
6300
c180
6300
6300
3600
3600
1c00
0800
ENDCHAR
STARTCHAR fraction
ENCODING -1
SWIDTH 489 0
DWIDTH 9 0
BBX 8 12 0 0
BITMAP
01
02
02
04
08
08
10
20
20
40
80
80
ENDCHAR
STARTCHAR fi
ENCODING -1
SWIDTH 426 0
DWIDTH 8 0
BBX 7 14 0 0
BITMAP
36
66
60
60
f6
66
66
66
66
66
66
66
66
66
ENDCHAR
STARTCHAR fl
ENCODING -1
SWIDTH 424 0
DWIDTH 8 0
BBX 7 14 0 0
BITMAP
36
66
66
66
f6
66
66
66
66
66
66
66
66
66
ENDCHAR
STARTCHAR apple
ENCODING -1
SWIDTH 738 0
DWIDTH 13 0
BBX 12 13 0 0
BITMAP
0180
0380
0300
3ae0
7ff0
7fe0
ffc0
ffc0
ffc0
7fe0
7ff0
3fe0
1dc0
ENDCHAR
STARTCHAR dotlessi
ENCODING -1
SWIDTH 155 0
DWIDTH 3 0
BBX 0 0 0 0
BITMAP
ENDCHAR
STARTCHAR breve
ENCODING -1
SWIDTH 335 0
DWIDTH 6 0
BBX 5 3 0 11
BITMAP
88
f8
70
ENDCHAR
STARTCHAR dotaccent
ENCODING -1
SWIDTH 156 0
DWIDTH 3 0
BBX 2 2 0 11
BITMAP
c0
c0
ENDCHAR
STARTCHAR ring
ENCODING -1
SWIDTH 324 0
DWIDTH 6 0
BBX 5 4 0 10
BITMAP
70
d8
d8
70
ENDCHAR
STARTCHAR hungarumlaut
ENCODING -1
SWIDTH 396 0
DWIDTH 7 0
BBX 6 3 0 11
BITMAP
6c
48
90
ENDCHAR
STARTCHAR ogonek
ENCODING -1
SWIDTH 225 0
DWIDTH 4 0
BBX 3 4 0 -4
BITMAP
80
80
e0
60
ENDCHAR
STARTCHAR caron
ENCODING -1
SWIDTH 279 0
DWIDTH 5 0
BBX 4 3 0 11
BITMAP
90
f0
60
ENDCHAR
STARTCHAR franc
ENCODING -1
SWIDTH 481 0
DWIDTH 9 0
BBX 8 12 0 0
BITMAP
7f
40
40
40
40
7e
40
40
40
f8
40
40
ENDCHAR
STARTCHAR Gbreve
ENCODING -1
SWIDTH 578 0
DWIDTH 10 0
BBX 9 17 0 0
BITMAP
2400
2400
1800
0000
3e00
6300
4100
c180
8000
8000
8000
8f80
8080
8180
c180
4380
3c80
ENDCHAR
STARTCHAR gbreve
ENCODING -1
SWIDTH 457 0
DWIDTH 8 0
BBX 7 17 0 -4
BITMAP
24
18
00
7a
46
82
82
82
82
82
86
c6
7a
02
82
c6
7c
ENDCHAR
STARTCHAR Idot
ENCODING -1
SWIDTH 132 0
DWIDTH 2 0
BBX 1 16 0 0
BITMAP
80
80
00
80
80
80
80
80
80
80
80
80
80
80
80
80
ENDCHAR
STARTCHAR Scedilla
ENCODING -1
SWIDTH 509 0
DWIDTH 9 0
BBX 8 17 0 -4
BITMAP
7c
c6
83
81
c0
f0
7e
07
01
81
81
c3
7e
10
38
08
30
ENDCHAR
STARTCHAR scedilla
ENCODING -1
SWIDTH 395 0
DWIDTH 7 0
BBX 6 14 0 -4
BITMAP
78
8c
8c
c0
70
3c
0c
84
8c
78
20
30
10
60
ENDCHAR
STARTCHAR Cacute
ENCODING -1
SWIDTH 562 0
DWIDTH 10 0
BBX 9 17 0 0
BITMAP
0c00
0800
1000
0000
3e00
6300
c180
8180
8000
8000
8000
8000
8080
8180
c180
6300
3e00
ENDCHAR
STARTCHAR cacute
ENCODING -1
SWIDTH 449 0
DWIDTH 8 0
BBX 7 13 0 0
BITMAP
0c
18
00
7c
46
86
80
80
80
82
86
c4
78
ENDCHAR
STARTCHAR Ccaron
ENCODING -1
SWIDTH 562 0
DWIDTH 10 0
BBX 9 17 0 0
BITMAP
2400
1800
1800
0000
3e00
6300
c180
8180
8000
8000
8000
8000
8080
8180
c180
6300
3e00
ENDCHAR
STARTCHAR ccaron
ENCODING -1
SWIDTH 425 0
DWIDTH 8 0
BBX 7 13 0 0
BITMAP
24
18
00
7c
46
86
80
80
80
82
86
c4
78
ENDCHAR
STARTCHAR dmacron
ENCODING -1
SWIDTH 474 0
DWIDTH 9 0
BBX 8 13 0 0
BITMAP
02
1f
02
7a
46
82
82
82
82
82
82
c6
7a
ENDCHAR
ENDFONT

